<mxfile host="Electron" agent="Mozilla/5.0 (Macintosh; Intel Mac OS X 10_15_7) AppleWebKit/537.36 (KHTML, like Gecko) draw.io/25.0.2 Chrome/128.0.6613.186 Electron/32.2.5 Safari/537.36" version="25.0.2" pages="4">
  <diagram name="Architettura Applicazione" id="Kq4jrPT8k5zwht_M5pPK">
    <mxGraphModel dx="1025" dy="821" grid="1" gridSize="10" guides="1" tooltips="1" connect="1" arrows="1" fold="1" page="1" pageScale="1" pageWidth="827" pageHeight="1169" math="0" shadow="0">
      <root>
        <mxCell id="0" />
        <mxCell id="1" parent="0" />
        <mxCell id="krpFnYSX_nsi3ZDucket-1" value="Client" style="whiteSpace=wrap;strokeWidth=2;sketch=1;curveFitting=1;jiggle=2;rounded=1;labelBackgroundColor=none;fillColor=none;strokeColor=#d6b656;fontFamily=Architects Daughter;fontSize=15;fontSource=https%3A%2F%2Ffonts.googleapis.com%2Fcss%3Ffamily%3DArchitects%2BDaughter;fontStyle=1" vertex="1" parent="1">
          <mxGeometry x="356.5" y="210" width="103" height="49" as="geometry" />
        </mxCell>
        <mxCell id="krpFnYSX_nsi3ZDucket-2" value="GraphQL API" style="rounded=1;arcSize=40;strokeWidth=2;sketch=1;curveFitting=1;jiggle=2;labelBackgroundColor=none;fillColor=none;strokeColor=#6c8ebf;fontFamily=Architects Daughter;fontSize=15;fontSource=https%3A%2F%2Ffonts.googleapis.com%2Fcss%3Ffamily%3DArchitects%2BDaughter;fontStyle=1" vertex="1" parent="1">
          <mxGeometry x="248" y="310" width="118" height="49" as="geometry" />
        </mxCell>
        <mxCell id="krpFnYSX_nsi3ZDucket-3" value="REST API" style="rounded=1;arcSize=40;strokeWidth=2;sketch=1;curveFitting=1;jiggle=2;labelBackgroundColor=none;fillColor=none;strokeColor=#6c8ebf;fontFamily=Architects Daughter;fontSize=15;fontSource=https%3A%2F%2Ffonts.googleapis.com%2Fcss%3Ffamily%3DArchitects%2BDaughter;fontStyle=1" vertex="1" parent="1">
          <mxGeometry x="458" y="310" width="121" height="49" as="geometry" />
        </mxCell>
        <mxCell id="krpFnYSX_nsi3ZDucket-4" value="Service Layer" style="rounded=1;arcSize=40;strokeWidth=2;sketch=1;curveFitting=1;jiggle=2;labelBackgroundColor=none;fillColor=none;strokeColor=#9673a6;fontFamily=Architects Daughter;fontSize=15;fontSource=https%3A%2F%2Ffonts.googleapis.com%2Fcss%3Ffamily%3DArchitects%2BDaughter;fontStyle=1" vertex="1" parent="1">
          <mxGeometry x="328" y="420" width="150" height="49" as="geometry" />
        </mxCell>
        <mxCell id="krpFnYSX_nsi3ZDucket-5" value="Data Access Layer" style="rounded=1;arcSize=40;strokeWidth=2;sketch=1;curveFitting=1;jiggle=2;labelBackgroundColor=none;fillColor=none;fontColor=#000000;strokeColor=#B09500;fontFamily=Architects Daughter;fontSize=15;fontSource=https%3A%2F%2Ffonts.googleapis.com%2Fcss%3Ffamily%3DArchitects%2BDaughter;fontStyle=1" vertex="1" parent="1">
          <mxGeometry x="327.5" y="530" width="150.5" height="49" as="geometry" />
        </mxCell>
        <mxCell id="krpFnYSX_nsi3ZDucket-6" value="Database" style="whiteSpace=wrap;strokeWidth=2;rounded=1;labelBackgroundColor=none;fillColor=none;fontColor=#000000;strokeColor=#B20000;fontFamily=Architects Daughter;fontSize=15;labelBorderColor=none;textShadow=0;gradientColor=none;sketch=1;curveFitting=1;jiggle=2;fontSource=https%3A%2F%2Ffonts.googleapis.com%2Fcss%3Ffamily%3DArchitects%2BDaughter;fontStyle=1" vertex="1" parent="1">
          <mxGeometry x="328" y="660" width="150" height="49" as="geometry" />
        </mxCell>
        <mxCell id="krpFnYSX_nsi3ZDucket-7" value="GraphQL Query/Mutation" style="startArrow=none;endArrow=block;exitX=0.25;exitY=1;entryX=0.5;entryY=0;rounded=1;exitDx=0;exitDy=0;entryDx=0;entryDy=0;edgeStyle=orthogonalEdgeStyle;sketch=1;curveFitting=1;jiggle=2;labelBackgroundColor=none;fontColor=default;fontFamily=Architects Daughter;fontSize=15;strokeWidth=2;fontSource=https%3A%2F%2Ffonts.googleapis.com%2Fcss%3Ffamily%3DArchitects%2BDaughter;fontStyle=1" edge="1" parent="1" source="krpFnYSX_nsi3ZDucket-1" target="krpFnYSX_nsi3ZDucket-2">
          <mxGeometry x="0.5962" y="-32" relative="1" as="geometry">
            <mxPoint x="3" y="-15" as="offset" />
          </mxGeometry>
        </mxCell>
        <mxCell id="krpFnYSX_nsi3ZDucket-8" value="HTTP Request" style="startArrow=none;endArrow=block;entryX=0.5;entryY=0;rounded=1;exitX=0.75;exitY=1;exitDx=0;exitDy=0;entryDx=0;entryDy=0;edgeStyle=orthogonalEdgeStyle;sketch=1;curveFitting=1;jiggle=2;labelBackgroundColor=none;fontColor=default;fontFamily=Architects Daughter;fontSize=15;strokeWidth=2;fontSource=https%3A%2F%2Ffonts.googleapis.com%2Fcss%3Ffamily%3DArchitects%2BDaughter;fontStyle=1" edge="1" parent="1" source="krpFnYSX_nsi3ZDucket-1" target="krpFnYSX_nsi3ZDucket-3">
          <mxGeometry x="0.6168" y="15" relative="1" as="geometry">
            <mxPoint x="438" y="260" as="sourcePoint" />
            <mxPoint x="-15" y="-14" as="offset" />
          </mxGeometry>
        </mxCell>
        <mxCell id="krpFnYSX_nsi3ZDucket-9" value="" style="startArrow=none;endArrow=block;exitX=0.5;exitY=1;entryX=0.25;entryY=0;rounded=1;exitDx=0;exitDy=0;entryDx=0;entryDy=0;edgeStyle=orthogonalEdgeStyle;sketch=1;curveFitting=1;jiggle=2;labelBackgroundColor=none;fontColor=default;fontFamily=Architects Daughter;fontSize=15;strokeWidth=2;fontSource=https%3A%2F%2Ffonts.googleapis.com%2Fcss%3Ffamily%3DArchitects%2BDaughter;fontStyle=1" edge="1" parent="1" source="krpFnYSX_nsi3ZDucket-2" target="krpFnYSX_nsi3ZDucket-4">
          <mxGeometry relative="1" as="geometry" />
        </mxCell>
        <mxCell id="krpFnYSX_nsi3ZDucket-10" value="" style="startArrow=none;endArrow=block;exitX=0.5;exitY=1;entryX=0.75;entryY=0;rounded=1;entryDx=0;entryDy=0;exitDx=0;exitDy=0;edgeStyle=orthogonalEdgeStyle;sketch=1;curveFitting=1;jiggle=2;labelBackgroundColor=none;fontColor=default;fontFamily=Architects Daughter;fontSize=15;strokeWidth=2;fontSource=https%3A%2F%2Ffonts.googleapis.com%2Fcss%3Ffamily%3DArchitects%2BDaughter;fontStyle=1" edge="1" parent="1" source="krpFnYSX_nsi3ZDucket-3" target="krpFnYSX_nsi3ZDucket-4">
          <mxGeometry relative="1" as="geometry" />
        </mxCell>
        <mxCell id="krpFnYSX_nsi3ZDucket-11" value="" style="startArrow=none;endArrow=block;exitX=0.5;exitY=1;entryX=0.5;entryY=0;rounded=1;entryDx=0;entryDy=0;exitDx=0;exitDy=0;sketch=1;curveFitting=1;jiggle=2;labelBackgroundColor=none;fontColor=default;fontFamily=Architects Daughter;fontSize=15;strokeWidth=2;fontSource=https%3A%2F%2Ffonts.googleapis.com%2Fcss%3Ffamily%3DArchitects%2BDaughter;fontStyle=1" edge="1" parent="1" source="krpFnYSX_nsi3ZDucket-4" target="krpFnYSX_nsi3ZDucket-5">
          <mxGeometry relative="1" as="geometry" />
        </mxCell>
        <mxCell id="krpFnYSX_nsi3ZDucket-12" value="" style="startArrow=none;endArrow=block;exitX=0.25;exitY=1;entryX=0.25;entryY=0;rounded=1;exitDx=0;exitDy=0;entryDx=0;entryDy=0;sketch=1;curveFitting=1;jiggle=2;labelBackgroundColor=none;fontColor=default;fontFamily=Architects Daughter;fontSize=15;strokeWidth=2;fontSource=https%3A%2F%2Ffonts.googleapis.com%2Fcss%3Ffamily%3DArchitects%2BDaughter;fontStyle=1" edge="1" parent="1" source="krpFnYSX_nsi3ZDucket-5" target="krpFnYSX_nsi3ZDucket-6">
          <mxGeometry relative="1" as="geometry" />
        </mxCell>
        <mxCell id="krpFnYSX_nsi3ZDucket-13" value="" style="startArrow=none;endArrow=block;exitX=0.75;exitY=0;entryX=0.75;entryY=1;rounded=1;entryDx=0;entryDy=0;exitDx=0;exitDy=0;sketch=1;curveFitting=1;jiggle=2;labelBackgroundColor=none;fontColor=default;fontFamily=Architects Daughter;fontSize=15;strokeWidth=2;fontSource=https%3A%2F%2Ffonts.googleapis.com%2Fcss%3Ffamily%3DArchitects%2BDaughter;fontStyle=1" edge="1" parent="1" source="krpFnYSX_nsi3ZDucket-6" target="krpFnYSX_nsi3ZDucket-5">
          <mxGeometry relative="1" as="geometry" />
        </mxCell>
      </root>
    </mxGraphModel>
  </diagram>
  <diagram id="BG0xylBWdrH2OJHsTY1r" name="Deployment Diagram">
    <mxGraphModel dx="2679" dy="821" grid="1" gridSize="10" guides="1" tooltips="1" connect="1" arrows="1" fold="1" page="1" pageScale="1" pageWidth="827" pageHeight="1169" math="0" shadow="0">
      <root>
        <mxCell id="0" />
        <mxCell id="1" parent="0" />
        <mxCell id="cYYZvpRh4JanNTzoMts_-1" value="Container Platform" style="whiteSpace=wrap;strokeWidth=2;sketch=1;hachureGap=4;jiggle=2;curveFitting=1;fontFamily=Architects Daughter;fontSource=https%3A%2F%2Ffonts.googleapis.com%2Fcss%3Ffamily%3DArchitects%2BDaughter;horizontal=1;verticalAlign=top;fontSize=18;fontStyle=1" parent="1" vertex="1">
          <mxGeometry x="-1360" y="160" width="730" height="660" as="geometry" />
        </mxCell>
        <mxCell id="cYYZvpRh4JanNTzoMts_-2" value="deployment postgresql" style="whiteSpace=wrap;strokeWidth=2;sketch=1;hachureGap=4;jiggle=2;curveFitting=1;fontFamily=Architects Daughter;fontSource=https%3A%2F%2Ffonts.googleapis.com%2Fcss%3Ffamily%3DArchitects%2BDaughter;verticalAlign=top;fontSize=15;fontStyle=1;fillColor=none;fontColor=#000000;strokeColor=#C73500;" parent="1" vertex="1">
          <mxGeometry x="-920" y="194" width="264" height="136" as="geometry" />
        </mxCell>
        <mxCell id="cYYZvpRh4JanNTzoMts_-3" value="deployment quarkus-graphql-quickstart" style="whiteSpace=wrap;strokeWidth=2;sketch=1;hachureGap=4;jiggle=2;curveFitting=1;fontFamily=Architects Daughter;fontSource=https%3A%2F%2Ffonts.googleapis.com%2Fcss%3Ffamily%3DArchitects%2BDaughter;verticalAlign=top;fontSize=18;fontStyle=1;fillColor=none;strokeColor=#b46504;" parent="1" vertex="1">
          <mxGeometry x="-1335" y="351" width="680" height="444" as="geometry" />
        </mxCell>
        <mxCell id="cYYZvpRh4JanNTzoMts_-4" value="Quarkus Application" style="whiteSpace=wrap;strokeWidth=2;sketch=1;hachureGap=4;jiggle=2;curveFitting=1;fontFamily=Architects Daughter;fontSource=https%3A%2F%2Ffonts.googleapis.com%2Fcss%3Ffamily%3DArchitects%2BDaughter;fontSize=15;fontStyle=1;fillColor=none;strokeColor=#23445d;" parent="1" vertex="1">
          <mxGeometry x="-1153" y="495" width="203" height="49" as="geometry" />
        </mxCell>
        <mxCell id="cYYZvpRh4JanNTzoMts_-5" value="/api/books" style="ellipse;aspect=fixed;strokeWidth=2;whiteSpace=wrap;sketch=1;hachureGap=4;jiggle=2;curveFitting=1;fontFamily=Architects Daughter;fontSource=https%3A%2F%2Ffonts.googleapis.com%2Fcss%3Ffamily%3DArchitects%2BDaughter;fontSize=15;fontStyle=1;fillColor=none;strokeColor=#6c8ebf;" parent="1" vertex="1">
          <mxGeometry x="-1304" y="397" width="94" height="94" as="geometry" />
        </mxCell>
        <mxCell id="cYYZvpRh4JanNTzoMts_-6" value="/api/graphql" style="ellipse;aspect=fixed;strokeWidth=2;whiteSpace=wrap;sketch=1;hachureGap=4;jiggle=2;curveFitting=1;fontFamily=Architects Daughter;fontSource=https%3A%2F%2Ffonts.googleapis.com%2Fcss%3Ffamily%3DArchitects%2BDaughter;fontSize=15;fontStyle=1;fillColor=none;strokeColor=#6c8ebf;" parent="1" vertex="1">
          <mxGeometry x="-1310" y="516" width="108" height="108" as="geometry" />
        </mxCell>
        <mxCell id="cYYZvpRh4JanNTzoMts_-7" value="H2 &#xa;            InMemory" style="shape=cylinder3;boundedLbl=1;backgroundOutline=1;size=10;strokeWidth=2;whiteSpace=wrap;sketch=1;hachureGap=4;jiggle=2;curveFitting=1;fontFamily=Architects Daughter;fontSource=https%3A%2F%2Ffonts.googleapis.com%2Fcss%3Ffamily%3DArchitects%2BDaughter;fontSize=15;fontStyle=1;fillColor=none;fontColor=#000000;strokeColor=#3A5431;" parent="1" vertex="1">
          <mxGeometry x="-770" y="561" width="84" height="81" as="geometry" />
        </mxCell>
        <mxCell id="cYYZvpRh4JanNTzoMts_-8" value="PostgreSQL" style="shape=cylinder3;boundedLbl=1;backgroundOutline=1;size=10;strokeWidth=2;whiteSpace=wrap;sketch=1;hachureGap=4;jiggle=2;curveFitting=1;fontFamily=Architects Daughter;fontSource=https%3A%2F%2Ffonts.googleapis.com%2Fcss%3Ffamily%3DArchitects%2BDaughter;fontSize=15;fontStyle=1;fillColor=default;fontColor=#000000;strokeColor=#3A5431;" parent="1" vertex="1">
          <mxGeometry x="-835" y="244" width="94" height="66" as="geometry" />
        </mxCell>
        <mxCell id="r3lSpzKdt8jFX7B1-05X-3" style="rounded=0;sketch=1;hachureGap=4;jiggle=2;curveFitting=1;orthogonalLoop=1;jettySize=auto;html=1;exitX=1;exitY=1;exitDx=0;exitDy=0;entryX=0;entryY=0.5;entryDx=0;entryDy=0;fontFamily=Architects Daughter;fontSource=https%3A%2F%2Ffonts.googleapis.com%2Fcss%3Ffamily%3DArchitects%2BDaughter;curved=1;" edge="1" parent="1" source="cYYZvpRh4JanNTzoMts_-9" target="r3lSpzKdt8jFX7B1-05X-1">
          <mxGeometry relative="1" as="geometry">
            <Array as="points">
              <mxPoint x="-1440" y="620" />
            </Array>
          </mxGeometry>
        </mxCell>
        <mxCell id="r3lSpzKdt8jFX7B1-05X-4" value="S3 Object Store Request" style="edgeLabel;html=1;align=center;verticalAlign=middle;resizable=0;points=[];sketch=1;hachureGap=4;jiggle=2;curveFitting=1;fontFamily=Architects Daughter;fontSource=https%3A%2F%2Ffonts.googleapis.com%2Fcss%3Ffamily%3DArchitects%2BDaughter;fontSize=15;fontStyle=1" vertex="1" connectable="0" parent="r3lSpzKdt8jFX7B1-05X-3">
          <mxGeometry x="-0.1817" y="8" relative="1" as="geometry">
            <mxPoint x="-19" y="-12" as="offset" />
          </mxGeometry>
        </mxCell>
        <mxCell id="cYYZvpRh4JanNTzoMts_-9" value="Client" style="whiteSpace=wrap;strokeWidth=2;sketch=1;hachureGap=4;jiggle=2;curveFitting=1;fontFamily=Architects Daughter;fontSource=https%3A%2F%2Ffonts.googleapis.com%2Fcss%3Ffamily%3DArchitects%2BDaughter;fontSize=15;fontStyle=1;fillColor=none;fontColor=#000000;strokeColor=#B09500;" parent="1" vertex="1">
          <mxGeometry x="-1640" y="462.5" width="103" height="49" as="geometry" />
        </mxCell>
        <mxCell id="cYYZvpRh4JanNTzoMts_-10" value="HTTP Request" style="curved=1;startArrow=none;endArrow=block;exitX=0.93;exitY=0;entryX=0;entryY=0.5;rounded=0;sketch=1;hachureGap=4;jiggle=2;curveFitting=1;fontFamily=Architects Daughter;fontSource=https%3A%2F%2Ffonts.googleapis.com%2Fcss%3Ffamily%3DArchitects%2BDaughter;fontSize=15;fontStyle=1" parent="1" source="cYYZvpRh4JanNTzoMts_-9" target="cYYZvpRh4JanNTzoMts_-5" edge="1">
          <mxGeometry relative="1" as="geometry">
            <Array as="points">
              <mxPoint x="-1449" y="418" />
            </Array>
          </mxGeometry>
        </mxCell>
        <mxCell id="cYYZvpRh4JanNTzoMts_-11" value="GraphQL Request" style="curved=1;startArrow=none;endArrow=block;exitX=1;exitY=0.5;entryX=0;entryY=0.5;rounded=0;sketch=1;hachureGap=4;jiggle=2;curveFitting=1;fontFamily=Architects Daughter;fontSource=https%3A%2F%2Ffonts.googleapis.com%2Fcss%3Ffamily%3DArchitects%2BDaughter;fontSize=15;fontStyle=1;exitDx=0;exitDy=0;" parent="1" source="cYYZvpRh4JanNTzoMts_-9" target="cYYZvpRh4JanNTzoMts_-6" edge="1">
          <mxGeometry x="0.1283" y="55" relative="1" as="geometry">
            <Array as="points">
              <mxPoint x="-1449" y="569" />
            </Array>
            <mxPoint as="offset" />
          </mxGeometry>
        </mxCell>
        <mxCell id="cYYZvpRh4JanNTzoMts_-12" value="" style="curved=1;startArrow=none;endArrow=block;exitX=1;exitY=0.5;entryX=0.3;entryY=0;rounded=0;sketch=1;hachureGap=4;jiggle=2;curveFitting=1;fontFamily=Architects Daughter;fontSource=https%3A%2F%2Ffonts.googleapis.com%2Fcss%3Ffamily%3DArchitects%2BDaughter;fontSize=15;fontStyle=1" parent="1" source="cYYZvpRh4JanNTzoMts_-5" target="cYYZvpRh4JanNTzoMts_-4" edge="1">
          <mxGeometry relative="1" as="geometry">
            <Array as="points">
              <mxPoint x="-1178" y="444" />
            </Array>
          </mxGeometry>
        </mxCell>
        <mxCell id="cYYZvpRh4JanNTzoMts_-13" value="" style="curved=1;startArrow=none;endArrow=block;exitX=0.99;exitY=0.5;entryX=0.3;entryY=0.99;rounded=0;sketch=1;hachureGap=4;jiggle=2;curveFitting=1;fontFamily=Architects Daughter;fontSource=https%3A%2F%2Ffonts.googleapis.com%2Fcss%3Ffamily%3DArchitects%2BDaughter;fontSize=15;fontStyle=1" parent="1" source="cYYZvpRh4JanNTzoMts_-6" target="cYYZvpRh4JanNTzoMts_-4" edge="1">
          <mxGeometry relative="1" as="geometry">
            <Array as="points">
              <mxPoint x="-1178" y="595" />
            </Array>
          </mxGeometry>
        </mxCell>
        <mxCell id="cYYZvpRh4JanNTzoMts_-14" value="[profile dev]" style="curved=1;startArrow=none;endArrow=block;exitX=0.76;exitY=0.99;entryX=0.01;entryY=0.5;rounded=0;sketch=1;hachureGap=4;jiggle=2;curveFitting=1;fontFamily=Architects Daughter;fontSource=https%3A%2F%2Ffonts.googleapis.com%2Fcss%3Ffamily%3DArchitects%2BDaughter;fontSize=15;fontStyle=1" parent="1" source="cYYZvpRh4JanNTzoMts_-4" target="cYYZvpRh4JanNTzoMts_-7" edge="1">
          <mxGeometry relative="1" as="geometry">
            <Array as="points">
              <mxPoint x="-875" y="601" />
            </Array>
          </mxGeometry>
        </mxCell>
        <mxCell id="cYYZvpRh4JanNTzoMts_-15" value="[profile prod]" style="curved=1;startArrow=none;endArrow=block;exitX=0.71;exitY=0;entryX=0.33;entryY=1;rounded=0;sketch=1;hachureGap=4;jiggle=2;curveFitting=1;fontFamily=Architects Daughter;fontSource=https%3A%2F%2Ffonts.googleapis.com%2Fcss%3Ffamily%3DArchitects%2BDaughter;fontSize=15;fontStyle=1" parent="1" source="cYYZvpRh4JanNTzoMts_-4" target="cYYZvpRh4JanNTzoMts_-8" edge="1">
          <mxGeometry relative="1" as="geometry">
            <Array as="points">
              <mxPoint x="-875" y="392" />
              <mxPoint x="-800" y="392" />
            </Array>
          </mxGeometry>
        </mxCell>
        <mxCell id="wmmrTTEHxk5lq5mahYPa-1" value="deployment MinIO" style="whiteSpace=wrap;strokeWidth=2;sketch=1;hachureGap=4;jiggle=2;curveFitting=1;fontFamily=Architects Daughter;fontSource=https%3A%2F%2Ffonts.googleapis.com%2Fcss%3Ffamily%3DArchitects%2BDaughter;verticalAlign=top;fontSize=15;fontStyle=1;fillColor=none;fontColor=#000000;strokeColor=#C73500;" vertex="1" parent="1">
          <mxGeometry x="-1335" y="193" width="264" height="136" as="geometry" />
        </mxCell>
        <mxCell id="wmmrTTEHxk5lq5mahYPa-4" value="" style="sketch=0;outlineConnect=0;fontColor=#232F3E;gradientColor=none;fillColor=#7AA116;strokeColor=none;dashed=0;verticalLabelPosition=bottom;verticalAlign=top;align=center;html=1;fontSize=12;fontStyle=0;aspect=fixed;pointerEvents=1;shape=mxgraph.aws4.bucket_with_objects;hachureGap=4;jiggle=2;curveFitting=1;fontFamily=Architects Daughter;fontSource=https%3A%2F%2Ffonts.googleapis.com%2Fcss%3Ffamily%3DArchitects%2BDaughter;" vertex="1" parent="1">
          <mxGeometry x="-1240" y="230" width="59.62" height="62" as="geometry" />
        </mxCell>
        <mxCell id="wmmrTTEHxk5lq5mahYPa-5" value="S3 Object&amp;nbsp;&lt;div&gt;Store&lt;/div&gt;" style="text;html=1;align=center;verticalAlign=middle;whiteSpace=wrap;rounded=0;fontFamily=Architects Daughter;fontSource=https%3A%2F%2Ffonts.googleapis.com%2Fcss%3Ffamily%3DArchitects%2BDaughter;fontSize=15;fontStyle=1" vertex="1" parent="1">
          <mxGeometry x="-1180.38" y="246" width="78.31" height="30" as="geometry" />
        </mxCell>
        <mxCell id="wmmrTTEHxk5lq5mahYPa-6" style="rounded=0;sketch=1;hachureGap=4;jiggle=2;curveFitting=1;orthogonalLoop=1;jettySize=auto;html=1;fontFamily=Architects Daughter;fontSource=https%3A%2F%2Ffonts.googleapis.com%2Fcss%3Ffamily%3DArchitects%2BDaughter;curved=1;" edge="1" parent="1" source="cYYZvpRh4JanNTzoMts_-4" target="wmmrTTEHxk5lq5mahYPa-4">
          <mxGeometry relative="1" as="geometry">
            <Array as="points">
              <mxPoint x="-1160" y="410" />
            </Array>
          </mxGeometry>
        </mxCell>
        <mxCell id="wmmrTTEHxk5lq5mahYPa-7" value="[profile prod]" style="edgeLabel;html=1;align=center;verticalAlign=middle;resizable=0;points=[];sketch=1;hachureGap=4;jiggle=2;curveFitting=1;fontFamily=Architects Daughter;fontSource=https%3A%2F%2Ffonts.googleapis.com%2Fcss%3Ffamily%3DArchitects%2BDaughter;fontSize=15;fontStyle=1" vertex="1" connectable="0" parent="wmmrTTEHxk5lq5mahYPa-6">
          <mxGeometry x="0.006" y="1" relative="1" as="geometry">
            <mxPoint x="20" y="26" as="offset" />
          </mxGeometry>
        </mxCell>
        <mxCell id="wmmrTTEHxk5lq5mahYPa-8" value="" style="sketch=0;outlineConnect=0;fontColor=#232F3E;gradientColor=none;fillColor=#7AA116;strokeColor=none;dashed=0;verticalLabelPosition=bottom;verticalAlign=top;align=center;html=1;fontSize=12;fontStyle=0;aspect=fixed;pointerEvents=1;shape=mxgraph.aws4.bucket_with_objects;hachureGap=4;jiggle=2;curveFitting=1;fontFamily=Architects Daughter;fontSource=https%3A%2F%2Ffonts.googleapis.com%2Fcss%3Ffamily%3DArchitects%2BDaughter;" vertex="1" parent="1">
          <mxGeometry x="-753" y="406" width="59.62" height="62" as="geometry" />
        </mxCell>
        <mxCell id="wmmrTTEHxk5lq5mahYPa-9" value="S3 Object&amp;nbsp;&lt;span style=&quot;background-color: initial;&quot;&gt;Store&lt;/span&gt;&lt;div&gt;&lt;span style=&quot;background-color: initial;&quot;&gt;(dev services)&lt;/span&gt;&lt;/div&gt;" style="text;html=1;align=center;verticalAlign=middle;whiteSpace=wrap;rounded=0;fontFamily=Architects Daughter;fontSource=https%3A%2F%2Ffonts.googleapis.com%2Fcss%3Ffamily%3DArchitects%2BDaughter;fontSize=15;fontStyle=1" vertex="1" parent="1">
          <mxGeometry x="-793" y="472" width="130" height="30" as="geometry" />
        </mxCell>
        <mxCell id="wmmrTTEHxk5lq5mahYPa-10" style="edgeStyle=orthogonalEdgeStyle;rounded=0;sketch=1;hachureGap=4;jiggle=2;curveFitting=1;orthogonalLoop=1;jettySize=auto;html=1;exitX=1;exitY=0.5;exitDx=0;exitDy=0;entryX=0.017;entryY=0.306;entryDx=0;entryDy=0;entryPerimeter=0;fontFamily=Architects Daughter;fontSource=https%3A%2F%2Ffonts.googleapis.com%2Fcss%3Ffamily%3DArchitects%2BDaughter;curved=1;" edge="1" parent="1" source="cYYZvpRh4JanNTzoMts_-4" target="wmmrTTEHxk5lq5mahYPa-8">
          <mxGeometry relative="1" as="geometry" />
        </mxCell>
        <mxCell id="wmmrTTEHxk5lq5mahYPa-11" value="&lt;font style=&quot;font-size: 15px;&quot;&gt;&lt;b&gt;[profile dev]&lt;/b&gt;&lt;/font&gt;" style="edgeLabel;html=1;align=center;verticalAlign=middle;resizable=0;points=[];sketch=1;hachureGap=4;jiggle=2;curveFitting=1;fontFamily=Architects Daughter;fontSource=https%3A%2F%2Ffonts.googleapis.com%2Fcss%3Ffamily%3DArchitects%2BDaughter;" vertex="1" connectable="0" parent="wmmrTTEHxk5lq5mahYPa-10">
          <mxGeometry x="-0.1565" y="12" relative="1" as="geometry">
            <mxPoint y="1" as="offset" />
          </mxGeometry>
        </mxCell>
        <mxCell id="r3lSpzKdt8jFX7B1-05X-2" style="rounded=0;sketch=1;hachureGap=4;jiggle=2;curveFitting=1;orthogonalLoop=1;jettySize=auto;html=1;exitX=1;exitY=0.5;exitDx=0;exitDy=0;entryX=0.5;entryY=1;entryDx=0;entryDy=0;fontFamily=Architects Daughter;fontSource=https%3A%2F%2Ffonts.googleapis.com%2Fcss%3Ffamily%3DArchitects%2BDaughter;curved=1;" edge="1" parent="1" source="r3lSpzKdt8jFX7B1-05X-1" target="cYYZvpRh4JanNTzoMts_-4">
          <mxGeometry relative="1" as="geometry">
            <Array as="points">
              <mxPoint x="-1110" y="646" />
            </Array>
          </mxGeometry>
        </mxCell>
        <mxCell id="r3lSpzKdt8jFX7B1-05X-1" value="/api/s3/files" style="ellipse;aspect=fixed;strokeWidth=2;whiteSpace=wrap;sketch=1;hachureGap=4;jiggle=2;curveFitting=1;fontFamily=Architects Daughter;fontSource=https%3A%2F%2Ffonts.googleapis.com%2Fcss%3Ffamily%3DArchitects%2BDaughter;fontSize=15;fontStyle=1;fillColor=none;strokeColor=#6c8ebf;" vertex="1" parent="1">
          <mxGeometry x="-1310" y="656" width="108" height="108" as="geometry" />
        </mxCell>
      </root>
    </mxGraphModel>
  </diagram>
  <diagram id="TPmToThWi0DiKZvWg38y" name="Deployment K8s">
    <mxGraphModel dx="1025" dy="821" grid="1" gridSize="10" guides="1" tooltips="1" connect="1" arrows="1" fold="1" page="1" pageScale="1" pageWidth="827" pageHeight="1169" math="0" shadow="0">
      <root>
        <mxCell id="0" />
        <mxCell id="1" parent="0" />
        <mxCell id="CREdmqTWdI5JE5ozIp68-1" value="" style="rounded=0;whiteSpace=wrap;html=1;fillColor=none;dashed=1;fontFamily=Architects Daughter;fontSource=https%3A%2F%2Ffonts.googleapis.com%2Fcss%3Ffamily%3DArchitects%2BDaughter;fontSize=14;fontStyle=1" vertex="1" parent="1">
          <mxGeometry x="360" y="530" width="380" height="110" as="geometry" />
        </mxCell>
        <mxCell id="CREdmqTWdI5JE5ozIp68-3" value="" style="rounded=0;whiteSpace=wrap;html=1;fillColor=none;strokeColor=#666666;fontFamily=Architects Daughter;fontSource=https%3A%2F%2Ffonts.googleapis.com%2Fcss%3Ffamily%3DArchitects%2BDaughter;fontSize=14;fontStyle=1" vertex="1" parent="1">
          <mxGeometry x="380" y="550" width="220" height="70" as="geometry" />
        </mxCell>
        <mxCell id="CREdmqTWdI5JE5ozIp68-5" value="" style="rounded=0;whiteSpace=wrap;html=1;labelBorderColor=none;fillColor=none;dashed=1;strokeWidth=1;strokeColor=#666666;fontFamily=Architects Daughter;fontSource=https%3A%2F%2Ffonts.googleapis.com%2Fcss%3Ffamily%3DArchitects%2BDaughter;fontSize=14;fontStyle=1" vertex="1" parent="1">
          <mxGeometry x="19" y="226.5" width="789" height="643.5" as="geometry" />
        </mxCell>
        <mxCell id="CREdmqTWdI5JE5ozIp68-4" value="" style="rounded=0;whiteSpace=wrap;html=1;labelBorderColor=none;fillColor=none;dashed=1;strokeWidth=1;strokeColor=#666666;fontFamily=Architects Daughter;fontSource=https%3A%2F%2Ffonts.googleapis.com%2Fcss%3Ffamily%3DArchitects%2BDaughter;fontSize=14;fontStyle=1" vertex="1" parent="1">
          <mxGeometry x="83" y="280" width="695" height="560" as="geometry" />
        </mxCell>
        <mxCell id="CREdmqTWdI5JE5ozIp68-7" value="" style="rounded=0;whiteSpace=wrap;html=1;fillColor=none;strokeColor=#666666;fontFamily=Architects Daughter;fontSource=https%3A%2F%2Ffonts.googleapis.com%2Fcss%3Ffamily%3DArchitects%2BDaughter;fontSize=14;fontStyle=1" vertex="1" parent="1">
          <mxGeometry x="391" y="320" width="220" height="150" as="geometry" />
        </mxCell>
        <mxCell id="CREdmqTWdI5JE5ozIp68-8" value="" style="rounded=0;whiteSpace=wrap;html=1;fillColor=none;dashed=1;fontFamily=Architects Daughter;fontSource=https%3A%2F%2Ffonts.googleapis.com%2Fcss%3Ffamily%3DArchitects%2BDaughter;strokeWidth=2;strokeColor=#FF3333;fontSize=14;fontStyle=1" vertex="1" parent="1">
          <mxGeometry x="371" y="300" width="380" height="190" as="geometry" />
        </mxCell>
        <mxCell id="CREdmqTWdI5JE5ozIp68-9" value="" style="aspect=fixed;html=1;dashed=0;whitespace=wrap;fillColor=#2875E2;strokeColor=#ffffff;points=[[0.005,0.63,0],[0.1,0.2,0],[0.9,0.2,0],[0.5,0,0],[0.995,0.63,0],[0.72,0.99,0],[0.5,1,0],[0.28,0.99,0]];shape=mxgraph.kubernetes.icon2;kubernetesLabel=1;prIcon=ing;fontFamily=Architects Daughter;fontSource=https%3A%2F%2Ffonts.googleapis.com%2Fcss%3Ffamily%3DArchitects%2BDaughter;fontSize=14;fontStyle=1" vertex="1" parent="1">
          <mxGeometry x="113" y="361.4" width="70" height="67.2" as="geometry" />
        </mxCell>
        <mxCell id="CREdmqTWdI5JE5ozIp68-10" value="" style="aspect=fixed;html=1;dashed=0;whitespace=wrap;fillColor=#2875E2;strokeColor=#ffffff;points=[[0.005,0.63,0],[0.1,0.2,0],[0.9,0.2,0],[0.5,0,0],[0.995,0.63,0],[0.72,0.99,0],[0.5,1,0],[0.28,0.99,0]];shape=mxgraph.kubernetes.icon2;kubernetesLabel=1;prIcon=pod;fontFamily=Architects Daughter;fontSource=https%3A%2F%2Ffonts.googleapis.com%2Fcss%3Ffamily%3DArchitects%2BDaughter;fontSize=14;fontStyle=1" vertex="1" parent="1">
          <mxGeometry x="411" y="328" width="64.58" height="62" as="geometry" />
        </mxCell>
        <mxCell id="CREdmqTWdI5JE5ozIp68-11" style="edgeStyle=orthogonalEdgeStyle;rounded=0;orthogonalLoop=1;jettySize=auto;html=1;exitX=0.995;exitY=0.63;exitDx=0;exitDy=0;exitPerimeter=0;entryX=0;entryY=0.5;entryDx=0;entryDy=0;strokeWidth=2;fontFamily=Architects Daughter;fontSource=https%3A%2F%2Ffonts.googleapis.com%2Fcss%3Ffamily%3DArchitects%2BDaughter;fontSize=14;fontStyle=1" edge="1" parent="1" source="CREdmqTWdI5JE5ozIp68-12" target="CREdmqTWdI5JE5ozIp68-7">
          <mxGeometry relative="1" as="geometry" />
        </mxCell>
        <mxCell id="CREdmqTWdI5JE5ozIp68-12" value="" style="aspect=fixed;html=1;dashed=0;whitespace=wrap;fillColor=#2875E2;strokeColor=#ffffff;points=[[0.005,0.63,0],[0.1,0.2,0],[0.9,0.2,0],[0.5,0,0],[0.995,0.63,0],[0.72,0.99,0],[0.5,1,0],[0.28,0.99,0]];shape=mxgraph.kubernetes.icon2;kubernetesLabel=1;prIcon=svc;fontFamily=Architects Daughter;fontSource=https%3A%2F%2Ffonts.googleapis.com%2Fcss%3Ffamily%3DArchitects%2BDaughter;fontSize=14;fontStyle=1" vertex="1" parent="1">
          <mxGeometry x="239.14" y="354" width="67.71" height="65" as="geometry" />
        </mxCell>
        <mxCell id="CREdmqTWdI5JE5ozIp68-13" style="edgeStyle=orthogonalEdgeStyle;rounded=0;orthogonalLoop=1;jettySize=auto;html=1;exitX=0.005;exitY=0.63;exitDx=0;exitDy=0;exitPerimeter=0;entryX=1;entryY=0.5;entryDx=0;entryDy=0;strokeColor=#666666;fontFamily=Architects Daughter;fontSource=https%3A%2F%2Ffonts.googleapis.com%2Fcss%3Ffamily%3DArchitects%2BDaughter;fontSize=14;fontStyle=1" edge="1" parent="1" source="CREdmqTWdI5JE5ozIp68-14" target="CREdmqTWdI5JE5ozIp68-7">
          <mxGeometry relative="1" as="geometry" />
        </mxCell>
        <mxCell id="CREdmqTWdI5JE5ozIp68-14" value="" style="aspect=fixed;html=1;dashed=0;whitespace=wrap;fillColor=#2875E2;strokeColor=#ffffff;points=[[0.005,0.63,0],[0.1,0.2,0],[0.9,0.2,0],[0.5,0,0],[0.995,0.63,0],[0.72,0.99,0],[0.5,1,0],[0.28,0.99,0]];shape=mxgraph.kubernetes.icon2;kubernetesLabel=1;prIcon=deploy;fontFamily=Architects Daughter;fontSource=https%3A%2F%2Ffonts.googleapis.com%2Fcss%3Ffamily%3DArchitects%2BDaughter;fontSize=14;fontStyle=1" vertex="1" parent="1">
          <mxGeometry x="671" y="354" width="67.71" height="65" as="geometry" />
        </mxCell>
        <mxCell id="CREdmqTWdI5JE5ozIp68-15" value="" style="aspect=fixed;html=1;dashed=0;whitespace=wrap;fillColor=#2875E2;strokeColor=#ffffff;points=[[0.005,0.63,0],[0.1,0.2,0],[0.9,0.2,0],[0.5,0,0],[0.995,0.63,0],[0.72,0.99,0],[0.5,1,0],[0.28,0.99,0]];shape=mxgraph.kubernetes.icon2;kubernetesLabel=1;prIcon=rs;fontFamily=Architects Daughter;fontSource=https%3A%2F%2Ffonts.googleapis.com%2Fcss%3Ffamily%3DArchitects%2BDaughter;fontSize=14;fontStyle=1" vertex="1" parent="1">
          <mxGeometry x="534" y="363" width="62.5" height="60" as="geometry" />
        </mxCell>
        <mxCell id="CREdmqTWdI5JE5ozIp68-16" value="Deployment quarkus-graphql-quickstart" style="text;html=1;align=center;verticalAlign=middle;whiteSpace=wrap;rounded=0;rotation=0;labelBackgroundColor=#FFFFFF;labelBorderColor=none;fontFamily=Architects Daughter;fontStyle=1;fontSize=14;fontSource=https%3A%2F%2Ffonts.googleapis.com%2Fcss%3Ffamily%3DArchitects%2BDaughter;" vertex="1" parent="1">
          <mxGeometry x="414" y="490" width="320" height="30" as="geometry" />
        </mxCell>
        <mxCell id="CREdmqTWdI5JE5ozIp68-17" style="edgeStyle=orthogonalEdgeStyle;rounded=0;orthogonalLoop=1;jettySize=auto;html=1;exitX=0.995;exitY=0.63;exitDx=0;exitDy=0;exitPerimeter=0;entryX=0;entryY=0.5;entryDx=0;entryDy=0;strokeWidth=2;fontFamily=Architects Daughter;fontSource=https%3A%2F%2Ffonts.googleapis.com%2Fcss%3Ffamily%3DArchitects%2BDaughter;fontSize=14;fontStyle=1" edge="1" parent="1" source="CREdmqTWdI5JE5ozIp68-18" target="CREdmqTWdI5JE5ozIp68-3">
          <mxGeometry relative="1" as="geometry" />
        </mxCell>
        <mxCell id="CREdmqTWdI5JE5ozIp68-18" value="" style="aspect=fixed;html=1;dashed=0;whitespace=wrap;fillColor=#2875E2;strokeColor=#ffffff;points=[[0.005,0.63,0],[0.1,0.2,0],[0.9,0.2,0],[0.5,0,0],[0.995,0.63,0],[0.72,0.99,0],[0.5,1,0],[0.28,0.99,0]];shape=mxgraph.kubernetes.icon2;kubernetesLabel=1;prIcon=svc;fontFamily=Architects Daughter;fontSource=https%3A%2F%2Ffonts.googleapis.com%2Fcss%3Ffamily%3DArchitects%2BDaughter;fontSize=14;fontStyle=1" vertex="1" parent="1">
          <mxGeometry x="239.49" y="544" width="68.75" height="66" as="geometry" />
        </mxCell>
        <mxCell id="CREdmqTWdI5JE5ozIp68-19" value="" style="aspect=fixed;html=1;dashed=0;whitespace=wrap;fillColor=#2875E2;strokeColor=#ffffff;points=[[0.005,0.63,0],[0.1,0.2,0],[0.9,0.2,0],[0.5,0,0],[0.995,0.63,0],[0.72,0.99,0],[0.5,1,0],[0.28,0.99,0]];shape=mxgraph.kubernetes.icon2;kubernetesLabel=1;prIcon=pod;fontFamily=Architects Daughter;fontSource=https%3A%2F%2Ffonts.googleapis.com%2Fcss%3Ffamily%3DArchitects%2BDaughter;fontSize=14;fontStyle=1" vertex="1" parent="1">
          <mxGeometry x="400" y="555" width="62.5" height="60" as="geometry" />
        </mxCell>
        <mxCell id="CREdmqTWdI5JE5ozIp68-20" value="" style="aspect=fixed;html=1;dashed=0;whitespace=wrap;fillColor=#2875E2;strokeColor=#ffffff;points=[[0.005,0.63,0],[0.1,0.2,0],[0.9,0.2,0],[0.5,0,0],[0.995,0.63,0],[0.72,0.99,0],[0.5,1,0],[0.28,0.99,0]];shape=mxgraph.kubernetes.icon2;kubernetesLabel=1;prIcon=rs;fontFamily=Architects Daughter;fontSource=https%3A%2F%2Ffonts.googleapis.com%2Fcss%3Ffamily%3DArchitects%2BDaughter;fontSize=14;fontStyle=1" vertex="1" parent="1">
          <mxGeometry x="523" y="555" width="62.5" height="60" as="geometry" />
        </mxCell>
        <mxCell id="CREdmqTWdI5JE5ozIp68-21" style="edgeStyle=orthogonalEdgeStyle;rounded=0;orthogonalLoop=1;jettySize=auto;html=1;exitX=0.005;exitY=0.63;exitDx=0;exitDy=0;exitPerimeter=0;entryX=1;entryY=0.5;entryDx=0;entryDy=0;strokeColor=#666666;fontFamily=Architects Daughter;fontSource=https%3A%2F%2Ffonts.googleapis.com%2Fcss%3Ffamily%3DArchitects%2BDaughter;fontSize=14;fontStyle=1" edge="1" parent="1" source="CREdmqTWdI5JE5ozIp68-22" target="CREdmqTWdI5JE5ozIp68-3">
          <mxGeometry relative="1" as="geometry" />
        </mxCell>
        <mxCell id="CREdmqTWdI5JE5ozIp68-22" value="" style="aspect=fixed;html=1;dashed=0;whitespace=wrap;fillColor=#2875E2;strokeColor=#ffffff;points=[[0.005,0.63,0],[0.1,0.2,0],[0.9,0.2,0],[0.5,0,0],[0.995,0.63,0],[0.72,0.99,0],[0.5,1,0],[0.28,0.99,0]];shape=mxgraph.kubernetes.icon2;kubernetesLabel=1;prIcon=deploy;fontFamily=Architects Daughter;fontSource=https%3A%2F%2Ffonts.googleapis.com%2Fcss%3Ffamily%3DArchitects%2BDaughter;fontSize=14;fontStyle=1" vertex="1" parent="1">
          <mxGeometry x="660" y="544" width="67.71" height="65" as="geometry" />
        </mxCell>
        <mxCell id="CREdmqTWdI5JE5ozIp68-29" value="" style="aspect=fixed;html=1;dashed=0;whitespace=wrap;fillColor=#2875E2;strokeColor=#ffffff;points=[[0.005,0.63,0],[0.1,0.2,0],[0.9,0.2,0],[0.5,0,0],[0.995,0.63,0],[0.72,0.99,0],[0.5,1,0],[0.28,0.99,0]];shape=mxgraph.kubernetes.icon2;kubernetesLabel=1;prIcon=pod;fontFamily=Architects Daughter;fontSource=https%3A%2F%2Ffonts.googleapis.com%2Fcss%3Ffamily%3DArchitects%2BDaughter;fontSize=14;fontStyle=1" vertex="1" parent="1">
          <mxGeometry x="413" y="398" width="62.5" height="60" as="geometry" />
        </mxCell>
        <mxCell id="CREdmqTWdI5JE5ozIp68-30" style="edgeStyle=orthogonalEdgeStyle;rounded=0;orthogonalLoop=1;jettySize=auto;html=1;exitX=0.005;exitY=0.63;exitDx=0;exitDy=0;exitPerimeter=0;entryX=0.995;entryY=0.63;entryDx=0;entryDy=0;entryPerimeter=0;strokeColor=#666666;fontFamily=Architects Daughter;fontSource=https%3A%2F%2Ffonts.googleapis.com%2Fcss%3Ffamily%3DArchitects%2BDaughter;fontSize=14;fontStyle=1" edge="1" parent="1" source="CREdmqTWdI5JE5ozIp68-15" target="CREdmqTWdI5JE5ozIp68-10">
          <mxGeometry relative="1" as="geometry" />
        </mxCell>
        <mxCell id="CREdmqTWdI5JE5ozIp68-31" style="edgeStyle=orthogonalEdgeStyle;rounded=0;orthogonalLoop=1;jettySize=auto;html=1;exitX=0.005;exitY=0.63;exitDx=0;exitDy=0;exitPerimeter=0;entryX=0.995;entryY=0.63;entryDx=0;entryDy=0;entryPerimeter=0;strokeColor=#666666;fontFamily=Architects Daughter;fontSource=https%3A%2F%2Ffonts.googleapis.com%2Fcss%3Ffamily%3DArchitects%2BDaughter;fontSize=14;fontStyle=1" edge="1" parent="1" source="CREdmqTWdI5JE5ozIp68-15" target="CREdmqTWdI5JE5ozIp68-29">
          <mxGeometry relative="1" as="geometry" />
        </mxCell>
        <mxCell id="CREdmqTWdI5JE5ozIp68-32" style="edgeStyle=orthogonalEdgeStyle;rounded=0;orthogonalLoop=1;jettySize=auto;html=1;entryX=0.005;entryY=0.63;entryDx=0;entryDy=0;entryPerimeter=0;strokeWidth=2;fontFamily=Architects Daughter;fontSource=https%3A%2F%2Ffonts.googleapis.com%2Fcss%3Ffamily%3DArchitects%2BDaughter;fontSize=14;fontStyle=1" edge="1" parent="1" source="CREdmqTWdI5JE5ozIp68-9" target="CREdmqTWdI5JE5ozIp68-12">
          <mxGeometry relative="1" as="geometry" />
        </mxCell>
        <mxCell id="CREdmqTWdI5JE5ozIp68-33" value="" style="aspect=fixed;html=1;dashed=0;whitespace=wrap;fillColor=#2875E2;strokeColor=#ffffff;points=[[0.005,0.63,0],[0.1,0.2,0],[0.9,0.2,0],[0.5,0,0],[0.995,0.63,0],[0.72,0.99,0],[0.5,1,0],[0.28,0.99,0]];shape=mxgraph.kubernetes.icon2;kubernetesLabel=1;prIcon=ns;fontFamily=Architects Daughter;fontSource=https%3A%2F%2Ffonts.googleapis.com%2Fcss%3Ffamily%3DArchitects%2BDaughter;fontSize=14;fontStyle=1" vertex="1" parent="1">
          <mxGeometry x="113" y="246" width="70.83" height="68" as="geometry" />
        </mxCell>
        <mxCell id="CREdmqTWdI5JE5ozIp68-34" value="" style="image;aspect=fixed;html=1;points=[];align=center;fontSize=14;image=img/lib/mscae/Kubernetes.svg;fontFamily=Architects Daughter;fontSource=https%3A%2F%2Ffonts.googleapis.com%2Fcss%3Ffamily%3DArchitects%2BDaughter;fontStyle=1" vertex="1" parent="1">
          <mxGeometry x="38" y="190" width="70" height="67.2" as="geometry" />
        </mxCell>
        <mxCell id="CREdmqTWdI5JE5ozIp68-35" value="Deployment postgresql" style="text;html=1;align=center;verticalAlign=middle;whiteSpace=wrap;rounded=0;rotation=0;labelBackgroundColor=#FFFFFF;labelBorderColor=none;fontFamily=Architects Daughter;fontStyle=1;fontSize=14;fontSource=https%3A%2F%2Ffonts.googleapis.com%2Fcss%3Ffamily%3DArchitects%2BDaughter;" vertex="1" parent="1">
          <mxGeometry x="440" y="640" width="230" height="30" as="geometry" />
        </mxCell>
        <mxCell id="CREdmqTWdI5JE5ozIp68-37" value="quarkus-graphql-quickstart" style="text;html=1;align=center;verticalAlign=middle;whiteSpace=wrap;rounded=0;rotation=0;labelBackgroundColor=#FFFFFF;labelBorderColor=none;fontFamily=Architects Daughter;fontStyle=1;fontSize=14;fontSource=https%3A%2F%2Ffonts.googleapis.com%2Fcss%3Ffamily%3DArchitects%2BDaughter;" vertex="1" parent="1">
          <mxGeometry x="167.05999999999997" y="423" width="211.86" height="30" as="geometry" />
        </mxCell>
        <mxCell id="CREdmqTWdI5JE5ozIp68-38" value="postgresql" style="text;html=1;align=center;verticalAlign=middle;whiteSpace=wrap;rounded=0;rotation=0;labelBackgroundColor=#FFFFFF;labelBorderColor=none;fontFamily=Architects Daughter;fontStyle=1;fontSize=14;fontSource=https%3A%2F%2Ffonts.googleapis.com%2Fcss%3Ffamily%3DArchitects%2BDaughter;" vertex="1" parent="1">
          <mxGeometry x="203.01" y="609" width="150" height="30" as="geometry" />
        </mxCell>
        <mxCell id="CREdmqTWdI5JE5ozIp68-40" value="K8s Cluster" style="text;html=1;align=center;verticalAlign=middle;whiteSpace=wrap;rounded=0;rotation=0;labelBackgroundColor=#FFFFFF;labelBorderColor=none;fontFamily=Architects Daughter;fontStyle=1;fontSize=14;fontSource=https%3A%2F%2Ffonts.googleapis.com%2Fcss%3Ffamily%3DArchitects%2BDaughter;" vertex="1" parent="1">
          <mxGeometry x="113" y="211" width="100" height="30" as="geometry" />
        </mxCell>
        <mxCell id="CREdmqTWdI5JE5ozIp68-41" value="Namespace" style="text;html=1;align=center;verticalAlign=middle;whiteSpace=wrap;rounded=0;rotation=0;labelBackgroundColor=#FFFFFF;labelBorderColor=none;fontFamily=Architects Daughter;fontStyle=1;fontSize=14;fontSource=https%3A%2F%2Ffonts.googleapis.com%2Fcss%3Ffamily%3DArchitects%2BDaughter;" vertex="1" parent="1">
          <mxGeometry x="196.86" y="265" width="70" height="30" as="geometry" />
        </mxCell>
        <mxCell id="CREdmqTWdI5JE5ozIp68-42" style="edgeStyle=orthogonalEdgeStyle;rounded=0;orthogonalLoop=1;jettySize=auto;html=1;exitX=0.005;exitY=0.63;exitDx=0;exitDy=0;exitPerimeter=0;entryX=0.995;entryY=0.63;entryDx=0;entryDy=0;entryPerimeter=0;fontColor=#666666;strokeColor=#666666;fontFamily=Architects Daughter;fontSource=https%3A%2F%2Ffonts.googleapis.com%2Fcss%3Ffamily%3DArchitects%2BDaughter;fontSize=14;fontStyle=1" edge="1" parent="1" source="CREdmqTWdI5JE5ozIp68-20" target="CREdmqTWdI5JE5ozIp68-19">
          <mxGeometry relative="1" as="geometry" />
        </mxCell>
        <mxCell id="pOwMtxaNH_gjPAMd15iv-1" value="" style="rounded=0;whiteSpace=wrap;html=1;fillColor=none;dashed=1;fontFamily=Architects Daughter;fontSource=https%3A%2F%2Ffonts.googleapis.com%2Fcss%3Ffamily%3DArchitects%2BDaughter;fontSize=14;fontStyle=1" vertex="1" parent="1">
          <mxGeometry x="360" y="680" width="380" height="110" as="geometry" />
        </mxCell>
        <mxCell id="pOwMtxaNH_gjPAMd15iv-2" value="" style="rounded=0;whiteSpace=wrap;html=1;fillColor=none;strokeColor=#666666;fontFamily=Architects Daughter;fontSource=https%3A%2F%2Ffonts.googleapis.com%2Fcss%3Ffamily%3DArchitects%2BDaughter;fontSize=14;fontStyle=1" vertex="1" parent="1">
          <mxGeometry x="380" y="700" width="220" height="70" as="geometry" />
        </mxCell>
        <mxCell id="pOwMtxaNH_gjPAMd15iv-3" style="edgeStyle=orthogonalEdgeStyle;rounded=0;orthogonalLoop=1;jettySize=auto;html=1;exitX=0.995;exitY=0.63;exitDx=0;exitDy=0;exitPerimeter=0;entryX=0;entryY=0.5;entryDx=0;entryDy=0;strokeWidth=2;fontFamily=Architects Daughter;fontSource=https%3A%2F%2Ffonts.googleapis.com%2Fcss%3Ffamily%3DArchitects%2BDaughter;fontSize=14;fontStyle=1" edge="1" source="pOwMtxaNH_gjPAMd15iv-4" target="pOwMtxaNH_gjPAMd15iv-2" parent="1">
          <mxGeometry relative="1" as="geometry" />
        </mxCell>
        <mxCell id="pOwMtxaNH_gjPAMd15iv-4" value="" style="aspect=fixed;html=1;dashed=0;whitespace=wrap;fillColor=#2875E2;strokeColor=#ffffff;points=[[0.005,0.63,0],[0.1,0.2,0],[0.9,0.2,0],[0.5,0,0],[0.995,0.63,0],[0.72,0.99,0],[0.5,1,0],[0.28,0.99,0]];shape=mxgraph.kubernetes.icon2;kubernetesLabel=1;prIcon=svc;fontFamily=Architects Daughter;fontSource=https%3A%2F%2Ffonts.googleapis.com%2Fcss%3Ffamily%3DArchitects%2BDaughter;fontSize=14;fontStyle=1" vertex="1" parent="1">
          <mxGeometry x="239.49" y="694" width="68.75" height="66" as="geometry" />
        </mxCell>
        <mxCell id="pOwMtxaNH_gjPAMd15iv-5" value="" style="aspect=fixed;html=1;dashed=0;whitespace=wrap;fillColor=#2875E2;strokeColor=#ffffff;points=[[0.005,0.63,0],[0.1,0.2,0],[0.9,0.2,0],[0.5,0,0],[0.995,0.63,0],[0.72,0.99,0],[0.5,1,0],[0.28,0.99,0]];shape=mxgraph.kubernetes.icon2;kubernetesLabel=1;prIcon=pod;fontFamily=Architects Daughter;fontSource=https%3A%2F%2Ffonts.googleapis.com%2Fcss%3Ffamily%3DArchitects%2BDaughter;fontSize=14;fontStyle=1" vertex="1" parent="1">
          <mxGeometry x="400" y="705" width="62.5" height="60" as="geometry" />
        </mxCell>
        <mxCell id="pOwMtxaNH_gjPAMd15iv-6" value="" style="aspect=fixed;html=1;dashed=0;whitespace=wrap;fillColor=#2875E2;strokeColor=#ffffff;points=[[0.005,0.63,0],[0.1,0.2,0],[0.9,0.2,0],[0.5,0,0],[0.995,0.63,0],[0.72,0.99,0],[0.5,1,0],[0.28,0.99,0]];shape=mxgraph.kubernetes.icon2;kubernetesLabel=1;prIcon=rs;fontFamily=Architects Daughter;fontSource=https%3A%2F%2Ffonts.googleapis.com%2Fcss%3Ffamily%3DArchitects%2BDaughter;fontSize=14;fontStyle=1" vertex="1" parent="1">
          <mxGeometry x="523" y="705" width="62.5" height="60" as="geometry" />
        </mxCell>
        <mxCell id="pOwMtxaNH_gjPAMd15iv-7" style="edgeStyle=orthogonalEdgeStyle;rounded=0;orthogonalLoop=1;jettySize=auto;html=1;exitX=0.005;exitY=0.63;exitDx=0;exitDy=0;exitPerimeter=0;entryX=1;entryY=0.5;entryDx=0;entryDy=0;strokeColor=#666666;fontFamily=Architects Daughter;fontSource=https%3A%2F%2Ffonts.googleapis.com%2Fcss%3Ffamily%3DArchitects%2BDaughter;fontSize=14;fontStyle=1" edge="1" source="pOwMtxaNH_gjPAMd15iv-8" target="pOwMtxaNH_gjPAMd15iv-2" parent="1">
          <mxGeometry relative="1" as="geometry" />
        </mxCell>
        <mxCell id="pOwMtxaNH_gjPAMd15iv-8" value="" style="aspect=fixed;html=1;dashed=0;whitespace=wrap;fillColor=#2875E2;strokeColor=#ffffff;points=[[0.005,0.63,0],[0.1,0.2,0],[0.9,0.2,0],[0.5,0,0],[0.995,0.63,0],[0.72,0.99,0],[0.5,1,0],[0.28,0.99,0]];shape=mxgraph.kubernetes.icon2;kubernetesLabel=1;prIcon=deploy;fontFamily=Architects Daughter;fontSource=https%3A%2F%2Ffonts.googleapis.com%2Fcss%3Ffamily%3DArchitects%2BDaughter;fontSize=14;fontStyle=1" vertex="1" parent="1">
          <mxGeometry x="660" y="694" width="67.71" height="65" as="geometry" />
        </mxCell>
        <mxCell id="pOwMtxaNH_gjPAMd15iv-9" value="Deployment minio" style="text;html=1;align=center;verticalAlign=middle;whiteSpace=wrap;rounded=0;rotation=0;labelBackgroundColor=#FFFFFF;labelBorderColor=none;fontFamily=Architects Daughter;fontStyle=1;fontSize=14;fontSource=https%3A%2F%2Ffonts.googleapis.com%2Fcss%3Ffamily%3DArchitects%2BDaughter;" vertex="1" parent="1">
          <mxGeometry x="440" y="790" width="230" height="30" as="geometry" />
        </mxCell>
        <mxCell id="pOwMtxaNH_gjPAMd15iv-10" value="minio" style="text;html=1;align=center;verticalAlign=middle;whiteSpace=wrap;rounded=0;rotation=0;labelBackgroundColor=#FFFFFF;labelBorderColor=none;fontFamily=Architects Daughter;fontStyle=1;fontSize=14;fontSource=https%3A%2F%2Ffonts.googleapis.com%2Fcss%3Ffamily%3DArchitects%2BDaughter;" vertex="1" parent="1">
          <mxGeometry x="203.01" y="759" width="150" height="30" as="geometry" />
        </mxCell>
        <mxCell id="pOwMtxaNH_gjPAMd15iv-11" style="edgeStyle=orthogonalEdgeStyle;rounded=0;orthogonalLoop=1;jettySize=auto;html=1;exitX=0.005;exitY=0.63;exitDx=0;exitDy=0;exitPerimeter=0;entryX=0.995;entryY=0.63;entryDx=0;entryDy=0;entryPerimeter=0;fontColor=#666666;strokeColor=#666666;fontFamily=Architects Daughter;fontSource=https%3A%2F%2Ffonts.googleapis.com%2Fcss%3Ffamily%3DArchitects%2BDaughter;fontSize=14;fontStyle=1" edge="1" source="pOwMtxaNH_gjPAMd15iv-6" target="pOwMtxaNH_gjPAMd15iv-5" parent="1">
          <mxGeometry relative="1" as="geometry" />
        </mxCell>
      </root>
    </mxGraphModel>
  </diagram>
  <diagram id="7fLxXOSLQOKFKueV8haO" name="Diagramma ER">
    <mxGraphModel dx="1025" dy="821" grid="1" gridSize="10" guides="1" tooltips="1" connect="1" arrows="1" fold="1" page="1" pageScale="1" pageWidth="827" pageHeight="1169" math="0" shadow="0">
      <root>
        <mxCell id="0" />
        <mxCell id="1" parent="0" />
        <mxCell id="6DQtFIIYm9AHDPmmrgxx-1" value="AUTHOR" style="shape=table;startSize=25;container=1;collapsible=0;childLayout=tableLayout;fixedRows=1;rowLines=1;fontStyle=1;align=center;resizeLast=1;sketch=1;hachureGap=4;jiggle=2;curveFitting=1;fontFamily=Architects Daughter;fontSource=https%3A%2F%2Ffonts.googleapis.com%2Fcss%3Ffamily%3DArchitects%2BDaughter;labelBackgroundColor=none;fillColor=#F5AB50;strokeColor=#909090;fontColor=#1A1A1A;rounded=1;fontSize=15;" vertex="1" parent="1">
          <mxGeometry x="40" y="130" width="160" height="135" as="geometry" />
        </mxCell>
        <mxCell id="6DQtFIIYm9AHDPmmrgxx-2" style="shape=tableRow;horizontal=0;startSize=0;swimlaneHead=0;swimlaneBody=0;fillColor=none;collapsible=0;dropTarget=0;points=[[0,0.5],[1,0.5]];portConstraint=eastwest;top=0;left=0;right=0;bottom=0;sketch=1;hachureGap=4;jiggle=2;curveFitting=1;fontFamily=Architects Daughter;fontSource=https%3A%2F%2Ffonts.googleapis.com%2Fcss%3Ffamily%3DArchitects%2BDaughter;labelBackgroundColor=none;strokeColor=#909090;fontColor=#1A1A1A;rounded=1;fontSize=15;" vertex="1" parent="6DQtFIIYm9AHDPmmrgxx-1">
          <mxGeometry y="25" width="160" height="22" as="geometry" />
        </mxCell>
        <mxCell id="6DQtFIIYm9AHDPmmrgxx-3" value="bigint" style="shape=partialRectangle;connectable=0;fillColor=none;top=0;left=0;bottom=0;right=0;align=left;spacingLeft=2;overflow=hidden;fontSize=15;sketch=1;hachureGap=4;jiggle=2;curveFitting=1;fontFamily=Architects Daughter;fontSource=https%3A%2F%2Ffonts.googleapis.com%2Fcss%3Ffamily%3DArchitects%2BDaughter;labelBackgroundColor=none;strokeColor=#909090;fontColor=#1A1A1A;rounded=1;" vertex="1" parent="6DQtFIIYm9AHDPmmrgxx-2">
          <mxGeometry width="50" height="22" as="geometry">
            <mxRectangle width="50" height="22" as="alternateBounds" />
          </mxGeometry>
        </mxCell>
        <mxCell id="6DQtFIIYm9AHDPmmrgxx-4" value="id" style="shape=partialRectangle;connectable=0;fillColor=none;top=0;left=0;bottom=0;right=0;align=left;spacingLeft=2;overflow=hidden;fontSize=15;sketch=1;hachureGap=4;jiggle=2;curveFitting=1;fontFamily=Architects Daughter;fontSource=https%3A%2F%2Ffonts.googleapis.com%2Fcss%3Ffamily%3DArchitects%2BDaughter;labelBackgroundColor=none;strokeColor=#909090;fontColor=#1A1A1A;rounded=1;" vertex="1" parent="6DQtFIIYm9AHDPmmrgxx-2">
          <mxGeometry x="50" width="110" height="22" as="geometry">
            <mxRectangle width="110" height="22" as="alternateBounds" />
          </mxGeometry>
        </mxCell>
        <mxCell id="6DQtFIIYm9AHDPmmrgxx-5" style="shape=tableRow;horizontal=0;startSize=0;swimlaneHead=0;swimlaneBody=0;fillColor=none;collapsible=0;dropTarget=0;points=[[0,0.5],[1,0.5]];portConstraint=eastwest;top=0;left=0;right=0;bottom=0;sketch=1;hachureGap=4;jiggle=2;curveFitting=1;fontFamily=Architects Daughter;fontSource=https%3A%2F%2Ffonts.googleapis.com%2Fcss%3Ffamily%3DArchitects%2BDaughter;labelBackgroundColor=none;strokeColor=#909090;fontColor=#1A1A1A;rounded=1;fontSize=15;" vertex="1" parent="6DQtFIIYm9AHDPmmrgxx-1">
          <mxGeometry y="47" width="160" height="22" as="geometry" />
        </mxCell>
        <mxCell id="6DQtFIIYm9AHDPmmrgxx-6" value="date" style="shape=partialRectangle;connectable=0;fillColor=none;top=0;left=0;bottom=0;right=0;align=left;spacingLeft=2;overflow=hidden;fontSize=15;sketch=1;hachureGap=4;jiggle=2;curveFitting=1;fontFamily=Architects Daughter;fontSource=https%3A%2F%2Ffonts.googleapis.com%2Fcss%3Ffamily%3DArchitects%2BDaughter;labelBackgroundColor=none;strokeColor=#909090;fontColor=#1A1A1A;rounded=1;" vertex="1" parent="6DQtFIIYm9AHDPmmrgxx-5">
          <mxGeometry width="50" height="22" as="geometry">
            <mxRectangle width="50" height="22" as="alternateBounds" />
          </mxGeometry>
        </mxCell>
        <mxCell id="6DQtFIIYm9AHDPmmrgxx-7" value="birth_date" style="shape=partialRectangle;connectable=0;fillColor=none;top=0;left=0;bottom=0;right=0;align=left;spacingLeft=2;overflow=hidden;fontSize=15;sketch=1;hachureGap=4;jiggle=2;curveFitting=1;fontFamily=Architects Daughter;fontSource=https%3A%2F%2Ffonts.googleapis.com%2Fcss%3Ffamily%3DArchitects%2BDaughter;labelBackgroundColor=none;strokeColor=#909090;fontColor=#1A1A1A;rounded=1;" vertex="1" parent="6DQtFIIYm9AHDPmmrgxx-5">
          <mxGeometry x="50" width="110" height="22" as="geometry">
            <mxRectangle width="110" height="22" as="alternateBounds" />
          </mxGeometry>
        </mxCell>
        <mxCell id="6DQtFIIYm9AHDPmmrgxx-8" style="shape=tableRow;horizontal=0;startSize=0;swimlaneHead=0;swimlaneBody=0;fillColor=none;collapsible=0;dropTarget=0;points=[[0,0.5],[1,0.5]];portConstraint=eastwest;top=0;left=0;right=0;bottom=0;sketch=1;hachureGap=4;jiggle=2;curveFitting=1;fontFamily=Architects Daughter;fontSource=https%3A%2F%2Ffonts.googleapis.com%2Fcss%3Ffamily%3DArchitects%2BDaughter;labelBackgroundColor=none;strokeColor=#909090;fontColor=#1A1A1A;rounded=1;fontSize=15;" vertex="1" parent="6DQtFIIYm9AHDPmmrgxx-1">
          <mxGeometry y="69" width="160" height="22" as="geometry" />
        </mxCell>
        <mxCell id="6DQtFIIYm9AHDPmmrgxx-9" value="string" style="shape=partialRectangle;connectable=0;fillColor=none;top=0;left=0;bottom=0;right=0;align=left;spacingLeft=2;overflow=hidden;fontSize=15;sketch=1;hachureGap=4;jiggle=2;curveFitting=1;fontFamily=Architects Daughter;fontSource=https%3A%2F%2Ffonts.googleapis.com%2Fcss%3Ffamily%3DArchitects%2BDaughter;labelBackgroundColor=none;strokeColor=#909090;fontColor=#1A1A1A;rounded=1;" vertex="1" parent="6DQtFIIYm9AHDPmmrgxx-8">
          <mxGeometry width="50" height="22" as="geometry">
            <mxRectangle width="50" height="22" as="alternateBounds" />
          </mxGeometry>
        </mxCell>
        <mxCell id="6DQtFIIYm9AHDPmmrgxx-10" value="sex" style="shape=partialRectangle;connectable=0;fillColor=none;top=0;left=0;bottom=0;right=0;align=left;spacingLeft=2;overflow=hidden;fontSize=15;sketch=1;hachureGap=4;jiggle=2;curveFitting=1;fontFamily=Architects Daughter;fontSource=https%3A%2F%2Ffonts.googleapis.com%2Fcss%3Ffamily%3DArchitects%2BDaughter;labelBackgroundColor=none;strokeColor=#909090;fontColor=#1A1A1A;rounded=1;" vertex="1" parent="6DQtFIIYm9AHDPmmrgxx-8">
          <mxGeometry x="50" width="110" height="22" as="geometry">
            <mxRectangle width="110" height="22" as="alternateBounds" />
          </mxGeometry>
        </mxCell>
        <mxCell id="6DQtFIIYm9AHDPmmrgxx-11" style="shape=tableRow;horizontal=0;startSize=0;swimlaneHead=0;swimlaneBody=0;fillColor=none;collapsible=0;dropTarget=0;points=[[0,0.5],[1,0.5]];portConstraint=eastwest;top=0;left=0;right=0;bottom=0;sketch=1;hachureGap=4;jiggle=2;curveFitting=1;fontFamily=Architects Daughter;fontSource=https%3A%2F%2Ffonts.googleapis.com%2Fcss%3Ffamily%3DArchitects%2BDaughter;labelBackgroundColor=none;strokeColor=#909090;fontColor=#1A1A1A;rounded=1;fontSize=15;" vertex="1" parent="6DQtFIIYm9AHDPmmrgxx-1">
          <mxGeometry y="91" width="160" height="22" as="geometry" />
        </mxCell>
        <mxCell id="6DQtFIIYm9AHDPmmrgxx-12" value="string" style="shape=partialRectangle;connectable=0;fillColor=none;top=0;left=0;bottom=0;right=0;align=left;spacingLeft=2;overflow=hidden;fontSize=15;sketch=1;hachureGap=4;jiggle=2;curveFitting=1;fontFamily=Architects Daughter;fontSource=https%3A%2F%2Ffonts.googleapis.com%2Fcss%3Ffamily%3DArchitects%2BDaughter;labelBackgroundColor=none;strokeColor=#909090;fontColor=#1A1A1A;rounded=1;" vertex="1" parent="6DQtFIIYm9AHDPmmrgxx-11">
          <mxGeometry width="50" height="22" as="geometry">
            <mxRectangle width="50" height="22" as="alternateBounds" />
          </mxGeometry>
        </mxCell>
        <mxCell id="6DQtFIIYm9AHDPmmrgxx-13" value="first_name" style="shape=partialRectangle;connectable=0;fillColor=none;top=0;left=0;bottom=0;right=0;align=left;spacingLeft=2;overflow=hidden;fontSize=15;sketch=1;hachureGap=4;jiggle=2;curveFitting=1;fontFamily=Architects Daughter;fontSource=https%3A%2F%2Ffonts.googleapis.com%2Fcss%3Ffamily%3DArchitects%2BDaughter;labelBackgroundColor=none;strokeColor=#909090;fontColor=#1A1A1A;rounded=1;" vertex="1" parent="6DQtFIIYm9AHDPmmrgxx-11">
          <mxGeometry x="50" width="110" height="22" as="geometry">
            <mxRectangle width="110" height="22" as="alternateBounds" />
          </mxGeometry>
        </mxCell>
        <mxCell id="6DQtFIIYm9AHDPmmrgxx-14" style="shape=tableRow;horizontal=0;startSize=0;swimlaneHead=0;swimlaneBody=0;fillColor=none;collapsible=0;dropTarget=0;points=[[0,0.5],[1,0.5]];portConstraint=eastwest;top=0;left=0;right=0;bottom=0;sketch=1;hachureGap=4;jiggle=2;curveFitting=1;fontFamily=Architects Daughter;fontSource=https%3A%2F%2Ffonts.googleapis.com%2Fcss%3Ffamily%3DArchitects%2BDaughter;labelBackgroundColor=none;strokeColor=#909090;fontColor=#1A1A1A;rounded=1;fontSize=15;" vertex="1" parent="6DQtFIIYm9AHDPmmrgxx-1">
          <mxGeometry y="113" width="160" height="22" as="geometry" />
        </mxCell>
        <mxCell id="6DQtFIIYm9AHDPmmrgxx-15" value="string" style="shape=partialRectangle;connectable=0;fillColor=none;top=0;left=0;bottom=0;right=0;align=left;spacingLeft=2;overflow=hidden;fontSize=15;sketch=1;hachureGap=4;jiggle=2;curveFitting=1;fontFamily=Architects Daughter;fontSource=https%3A%2F%2Ffonts.googleapis.com%2Fcss%3Ffamily%3DArchitects%2BDaughter;labelBackgroundColor=none;strokeColor=#909090;fontColor=#1A1A1A;rounded=1;" vertex="1" parent="6DQtFIIYm9AHDPmmrgxx-14">
          <mxGeometry width="50" height="22" as="geometry">
            <mxRectangle width="50" height="22" as="alternateBounds" />
          </mxGeometry>
        </mxCell>
        <mxCell id="6DQtFIIYm9AHDPmmrgxx-16" value="last_name" style="shape=partialRectangle;connectable=0;fillColor=none;top=0;left=0;bottom=0;right=0;align=left;spacingLeft=2;overflow=hidden;fontSize=15;sketch=1;hachureGap=4;jiggle=2;curveFitting=1;fontFamily=Architects Daughter;fontSource=https%3A%2F%2Ffonts.googleapis.com%2Fcss%3Ffamily%3DArchitects%2BDaughter;labelBackgroundColor=none;strokeColor=#909090;fontColor=#1A1A1A;rounded=1;" vertex="1" parent="6DQtFIIYm9AHDPmmrgxx-14">
          <mxGeometry x="50" width="110" height="22" as="geometry">
            <mxRectangle width="110" height="22" as="alternateBounds" />
          </mxGeometry>
        </mxCell>
        <mxCell id="6DQtFIIYm9AHDPmmrgxx-17" value="BOOK" style="shape=table;startSize=25;container=1;collapsible=0;childLayout=tableLayout;fixedRows=1;rowLines=1;fontStyle=1;align=center;resizeLast=1;sketch=1;hachureGap=4;jiggle=2;curveFitting=1;fontFamily=Architects Daughter;fontSource=https%3A%2F%2Ffonts.googleapis.com%2Fcss%3Ffamily%3DArchitects%2BDaughter;labelBackgroundColor=none;fillColor=#F5AB50;strokeColor=#909090;fontColor=#1A1A1A;rounded=1;fontSize=15;" vertex="1" parent="1">
          <mxGeometry x="452" y="130" width="178" height="223" as="geometry" />
        </mxCell>
        <mxCell id="6DQtFIIYm9AHDPmmrgxx-18" style="shape=tableRow;horizontal=0;startSize=0;swimlaneHead=0;swimlaneBody=0;fillColor=none;collapsible=0;dropTarget=0;points=[[0,0.5],[1,0.5]];portConstraint=eastwest;top=0;left=0;right=0;bottom=0;sketch=1;hachureGap=4;jiggle=2;curveFitting=1;fontFamily=Architects Daughter;fontSource=https%3A%2F%2Ffonts.googleapis.com%2Fcss%3Ffamily%3DArchitects%2BDaughter;labelBackgroundColor=none;strokeColor=#909090;fontColor=#1A1A1A;rounded=1;fontSize=15;" vertex="1" parent="6DQtFIIYm9AHDPmmrgxx-17">
          <mxGeometry y="25" width="178" height="22" as="geometry" />
        </mxCell>
        <mxCell id="6DQtFIIYm9AHDPmmrgxx-19" value="bigint" style="shape=partialRectangle;connectable=0;fillColor=none;top=0;left=0;bottom=0;right=0;align=left;spacingLeft=2;overflow=hidden;fontSize=15;sketch=1;hachureGap=4;jiggle=2;curveFitting=1;fontFamily=Architects Daughter;fontSource=https%3A%2F%2Ffonts.googleapis.com%2Fcss%3Ffamily%3DArchitects%2BDaughter;labelBackgroundColor=none;strokeColor=#909090;fontColor=#1A1A1A;rounded=1;" vertex="1" parent="6DQtFIIYm9AHDPmmrgxx-18">
          <mxGeometry width="48" height="22" as="geometry">
            <mxRectangle width="48" height="22" as="alternateBounds" />
          </mxGeometry>
        </mxCell>
        <mxCell id="6DQtFIIYm9AHDPmmrgxx-20" value="id" style="shape=partialRectangle;connectable=0;fillColor=none;top=0;left=0;bottom=0;right=0;align=left;spacingLeft=2;overflow=hidden;fontSize=15;sketch=1;hachureGap=4;jiggle=2;curveFitting=1;fontFamily=Architects Daughter;fontSource=https%3A%2F%2Ffonts.googleapis.com%2Fcss%3Ffamily%3DArchitects%2BDaughter;labelBackgroundColor=none;strokeColor=#909090;fontColor=#1A1A1A;rounded=1;" vertex="1" parent="6DQtFIIYm9AHDPmmrgxx-18">
          <mxGeometry x="48" width="130" height="22" as="geometry">
            <mxRectangle width="130" height="22" as="alternateBounds" />
          </mxGeometry>
        </mxCell>
        <mxCell id="6DQtFIIYm9AHDPmmrgxx-21" style="shape=tableRow;horizontal=0;startSize=0;swimlaneHead=0;swimlaneBody=0;fillColor=none;collapsible=0;dropTarget=0;points=[[0,0.5],[1,0.5]];portConstraint=eastwest;top=0;left=0;right=0;bottom=0;sketch=1;hachureGap=4;jiggle=2;curveFitting=1;fontFamily=Architects Daughter;fontSource=https%3A%2F%2Ffonts.googleapis.com%2Fcss%3Ffamily%3DArchitects%2BDaughter;labelBackgroundColor=none;strokeColor=#909090;fontColor=#1A1A1A;rounded=1;fontSize=15;" vertex="1" parent="6DQtFIIYm9AHDPmmrgxx-17">
          <mxGeometry y="47" width="178" height="22" as="geometry" />
        </mxCell>
        <mxCell id="6DQtFIIYm9AHDPmmrgxx-22" value="int" style="shape=partialRectangle;connectable=0;fillColor=none;top=0;left=0;bottom=0;right=0;align=left;spacingLeft=2;overflow=hidden;fontSize=15;sketch=1;hachureGap=4;jiggle=2;curveFitting=1;fontFamily=Architects Daughter;fontSource=https%3A%2F%2Ffonts.googleapis.com%2Fcss%3Ffamily%3DArchitects%2BDaughter;labelBackgroundColor=none;strokeColor=#909090;fontColor=#1A1A1A;rounded=1;" vertex="1" parent="6DQtFIIYm9AHDPmmrgxx-21">
          <mxGeometry width="48" height="22" as="geometry">
            <mxRectangle width="48" height="22" as="alternateBounds" />
          </mxGeometry>
        </mxCell>
        <mxCell id="6DQtFIIYm9AHDPmmrgxx-23" value="pages" style="shape=partialRectangle;connectable=0;fillColor=none;top=0;left=0;bottom=0;right=0;align=left;spacingLeft=2;overflow=hidden;fontSize=15;sketch=1;hachureGap=4;jiggle=2;curveFitting=1;fontFamily=Architects Daughter;fontSource=https%3A%2F%2Ffonts.googleapis.com%2Fcss%3Ffamily%3DArchitects%2BDaughter;labelBackgroundColor=none;strokeColor=#909090;fontColor=#1A1A1A;rounded=1;" vertex="1" parent="6DQtFIIYm9AHDPmmrgxx-21">
          <mxGeometry x="48" width="130" height="22" as="geometry">
            <mxRectangle width="130" height="22" as="alternateBounds" />
          </mxGeometry>
        </mxCell>
        <mxCell id="6DQtFIIYm9AHDPmmrgxx-24" style="shape=tableRow;horizontal=0;startSize=0;swimlaneHead=0;swimlaneBody=0;fillColor=none;collapsible=0;dropTarget=0;points=[[0,0.5],[1,0.5]];portConstraint=eastwest;top=0;left=0;right=0;bottom=0;sketch=1;hachureGap=4;jiggle=2;curveFitting=1;fontFamily=Architects Daughter;fontSource=https%3A%2F%2Ffonts.googleapis.com%2Fcss%3Ffamily%3DArchitects%2BDaughter;labelBackgroundColor=none;strokeColor=#909090;fontColor=#1A1A1A;rounded=1;fontSize=15;" vertex="1" parent="6DQtFIIYm9AHDPmmrgxx-17">
          <mxGeometry y="69" width="178" height="22" as="geometry" />
        </mxCell>
        <mxCell id="6DQtFIIYm9AHDPmmrgxx-25" value="date" style="shape=partialRectangle;connectable=0;fillColor=none;top=0;left=0;bottom=0;right=0;align=left;spacingLeft=2;overflow=hidden;fontSize=15;sketch=1;hachureGap=4;jiggle=2;curveFitting=1;fontFamily=Architects Daughter;fontSource=https%3A%2F%2Ffonts.googleapis.com%2Fcss%3Ffamily%3DArchitects%2BDaughter;labelBackgroundColor=none;strokeColor=#909090;fontColor=#1A1A1A;rounded=1;" vertex="1" parent="6DQtFIIYm9AHDPmmrgxx-24">
          <mxGeometry width="48" height="22" as="geometry">
            <mxRectangle width="48" height="22" as="alternateBounds" />
          </mxGeometry>
        </mxCell>
        <mxCell id="6DQtFIIYm9AHDPmmrgxx-26" value="publication_date" style="shape=partialRectangle;connectable=0;fillColor=none;top=0;left=0;bottom=0;right=0;align=left;spacingLeft=2;overflow=hidden;fontSize=15;sketch=1;hachureGap=4;jiggle=2;curveFitting=1;fontFamily=Architects Daughter;fontSource=https%3A%2F%2Ffonts.googleapis.com%2Fcss%3Ffamily%3DArchitects%2BDaughter;labelBackgroundColor=none;strokeColor=#909090;fontColor=#1A1A1A;rounded=1;" vertex="1" parent="6DQtFIIYm9AHDPmmrgxx-24">
          <mxGeometry x="48" width="130" height="22" as="geometry">
            <mxRectangle width="130" height="22" as="alternateBounds" />
          </mxGeometry>
        </mxCell>
        <mxCell id="6DQtFIIYm9AHDPmmrgxx-27" style="shape=tableRow;horizontal=0;startSize=0;swimlaneHead=0;swimlaneBody=0;fillColor=none;collapsible=0;dropTarget=0;points=[[0,0.5],[1,0.5]];portConstraint=eastwest;top=0;left=0;right=0;bottom=0;sketch=1;hachureGap=4;jiggle=2;curveFitting=1;fontFamily=Architects Daughter;fontSource=https%3A%2F%2Ffonts.googleapis.com%2Fcss%3Ffamily%3DArchitects%2BDaughter;labelBackgroundColor=none;strokeColor=#909090;fontColor=#1A1A1A;rounded=1;fontSize=15;" vertex="1" parent="6DQtFIIYm9AHDPmmrgxx-17">
          <mxGeometry y="91" width="178" height="22" as="geometry" />
        </mxCell>
        <mxCell id="6DQtFIIYm9AHDPmmrgxx-28" value="bigint" style="shape=partialRectangle;connectable=0;fillColor=none;top=0;left=0;bottom=0;right=0;align=left;spacingLeft=2;overflow=hidden;fontSize=15;sketch=1;hachureGap=4;jiggle=2;curveFitting=1;fontFamily=Architects Daughter;fontSource=https%3A%2F%2Ffonts.googleapis.com%2Fcss%3Ffamily%3DArchitects%2BDaughter;labelBackgroundColor=none;strokeColor=#909090;fontColor=#1A1A1A;rounded=1;" vertex="1" parent="6DQtFIIYm9AHDPmmrgxx-27">
          <mxGeometry width="48" height="22" as="geometry">
            <mxRectangle width="48" height="22" as="alternateBounds" />
          </mxGeometry>
        </mxCell>
        <mxCell id="6DQtFIIYm9AHDPmmrgxx-29" value="editor_id" style="shape=partialRectangle;connectable=0;fillColor=none;top=0;left=0;bottom=0;right=0;align=left;spacingLeft=2;overflow=hidden;fontSize=15;sketch=1;hachureGap=4;jiggle=2;curveFitting=1;fontFamily=Architects Daughter;fontSource=https%3A%2F%2Ffonts.googleapis.com%2Fcss%3Ffamily%3DArchitects%2BDaughter;labelBackgroundColor=none;strokeColor=#909090;fontColor=#1A1A1A;rounded=1;" vertex="1" parent="6DQtFIIYm9AHDPmmrgxx-27">
          <mxGeometry x="48" width="130" height="22" as="geometry">
            <mxRectangle width="130" height="22" as="alternateBounds" />
          </mxGeometry>
        </mxCell>
        <mxCell id="6DQtFIIYm9AHDPmmrgxx-30" style="shape=tableRow;horizontal=0;startSize=0;swimlaneHead=0;swimlaneBody=0;fillColor=none;collapsible=0;dropTarget=0;points=[[0,0.5],[1,0.5]];portConstraint=eastwest;top=0;left=0;right=0;bottom=0;sketch=1;hachureGap=4;jiggle=2;curveFitting=1;fontFamily=Architects Daughter;fontSource=https%3A%2F%2Ffonts.googleapis.com%2Fcss%3Ffamily%3DArchitects%2BDaughter;labelBackgroundColor=none;strokeColor=#909090;fontColor=#1A1A1A;rounded=1;fontSize=15;" vertex="1" parent="6DQtFIIYm9AHDPmmrgxx-17">
          <mxGeometry y="113" width="178" height="22" as="geometry" />
        </mxCell>
        <mxCell id="6DQtFIIYm9AHDPmmrgxx-31" value="string" style="shape=partialRectangle;connectable=0;fillColor=none;top=0;left=0;bottom=0;right=0;align=left;spacingLeft=2;overflow=hidden;fontSize=15;sketch=1;hachureGap=4;jiggle=2;curveFitting=1;fontFamily=Architects Daughter;fontSource=https%3A%2F%2Ffonts.googleapis.com%2Fcss%3Ffamily%3DArchitects%2BDaughter;labelBackgroundColor=none;strokeColor=#909090;fontColor=#1A1A1A;rounded=1;" vertex="1" parent="6DQtFIIYm9AHDPmmrgxx-30">
          <mxGeometry width="48" height="22" as="geometry">
            <mxRectangle width="48" height="22" as="alternateBounds" />
          </mxGeometry>
        </mxCell>
        <mxCell id="6DQtFIIYm9AHDPmmrgxx-32" value="isbn" style="shape=partialRectangle;connectable=0;fillColor=none;top=0;left=0;bottom=0;right=0;align=left;spacingLeft=2;overflow=hidden;fontSize=15;sketch=1;hachureGap=4;jiggle=2;curveFitting=1;fontFamily=Architects Daughter;fontSource=https%3A%2F%2Ffonts.googleapis.com%2Fcss%3Ffamily%3DArchitects%2BDaughter;labelBackgroundColor=none;strokeColor=#909090;fontColor=#1A1A1A;rounded=1;" vertex="1" parent="6DQtFIIYm9AHDPmmrgxx-30">
          <mxGeometry x="48" width="130" height="22" as="geometry">
            <mxRectangle width="130" height="22" as="alternateBounds" />
          </mxGeometry>
        </mxCell>
        <mxCell id="6DQtFIIYm9AHDPmmrgxx-33" style="shape=tableRow;horizontal=0;startSize=0;swimlaneHead=0;swimlaneBody=0;fillColor=none;collapsible=0;dropTarget=0;points=[[0,0.5],[1,0.5]];portConstraint=eastwest;top=0;left=0;right=0;bottom=0;sketch=1;hachureGap=4;jiggle=2;curveFitting=1;fontFamily=Architects Daughter;fontSource=https%3A%2F%2Ffonts.googleapis.com%2Fcss%3Ffamily%3DArchitects%2BDaughter;labelBackgroundColor=none;strokeColor=#909090;fontColor=#1A1A1A;rounded=1;fontSize=15;" vertex="1" parent="6DQtFIIYm9AHDPmmrgxx-17">
          <mxGeometry y="135" width="178" height="22" as="geometry" />
        </mxCell>
        <mxCell id="6DQtFIIYm9AHDPmmrgxx-34" value="string" style="shape=partialRectangle;connectable=0;fillColor=none;top=0;left=0;bottom=0;right=0;align=left;spacingLeft=2;overflow=hidden;fontSize=15;sketch=1;hachureGap=4;jiggle=2;curveFitting=1;fontFamily=Architects Daughter;fontSource=https%3A%2F%2Ffonts.googleapis.com%2Fcss%3Ffamily%3DArchitects%2BDaughter;labelBackgroundColor=none;strokeColor=#909090;fontColor=#1A1A1A;rounded=1;" vertex="1" parent="6DQtFIIYm9AHDPmmrgxx-33">
          <mxGeometry width="48" height="22" as="geometry">
            <mxRectangle width="48" height="22" as="alternateBounds" />
          </mxGeometry>
        </mxCell>
        <mxCell id="6DQtFIIYm9AHDPmmrgxx-35" value="genre" style="shape=partialRectangle;connectable=0;fillColor=none;top=0;left=0;bottom=0;right=0;align=left;spacingLeft=2;overflow=hidden;fontSize=15;sketch=1;hachureGap=4;jiggle=2;curveFitting=1;fontFamily=Architects Daughter;fontSource=https%3A%2F%2Ffonts.googleapis.com%2Fcss%3Ffamily%3DArchitects%2BDaughter;labelBackgroundColor=none;strokeColor=#909090;fontColor=#1A1A1A;rounded=1;" vertex="1" parent="6DQtFIIYm9AHDPmmrgxx-33">
          <mxGeometry x="48" width="130" height="22" as="geometry">
            <mxRectangle width="130" height="22" as="alternateBounds" />
          </mxGeometry>
        </mxCell>
        <mxCell id="6DQtFIIYm9AHDPmmrgxx-36" style="shape=tableRow;horizontal=0;startSize=0;swimlaneHead=0;swimlaneBody=0;fillColor=none;collapsible=0;dropTarget=0;points=[[0,0.5],[1,0.5]];portConstraint=eastwest;top=0;left=0;right=0;bottom=0;sketch=1;hachureGap=4;jiggle=2;curveFitting=1;fontFamily=Architects Daughter;fontSource=https%3A%2F%2Ffonts.googleapis.com%2Fcss%3Ffamily%3DArchitects%2BDaughter;labelBackgroundColor=none;strokeColor=#909090;fontColor=#1A1A1A;rounded=1;fontSize=15;" vertex="1" parent="6DQtFIIYm9AHDPmmrgxx-17">
          <mxGeometry y="157" width="178" height="22" as="geometry" />
        </mxCell>
        <mxCell id="6DQtFIIYm9AHDPmmrgxx-37" value="string" style="shape=partialRectangle;connectable=0;fillColor=none;top=0;left=0;bottom=0;right=0;align=left;spacingLeft=2;overflow=hidden;fontSize=15;sketch=1;hachureGap=4;jiggle=2;curveFitting=1;fontFamily=Architects Daughter;fontSource=https%3A%2F%2Ffonts.googleapis.com%2Fcss%3Ffamily%3DArchitects%2BDaughter;labelBackgroundColor=none;strokeColor=#909090;fontColor=#1A1A1A;rounded=1;" vertex="1" parent="6DQtFIIYm9AHDPmmrgxx-36">
          <mxGeometry width="48" height="22" as="geometry">
            <mxRectangle width="48" height="22" as="alternateBounds" />
          </mxGeometry>
        </mxCell>
        <mxCell id="6DQtFIIYm9AHDPmmrgxx-38" value="sub_title" style="shape=partialRectangle;connectable=0;fillColor=none;top=0;left=0;bottom=0;right=0;align=left;spacingLeft=2;overflow=hidden;fontSize=15;sketch=1;hachureGap=4;jiggle=2;curveFitting=1;fontFamily=Architects Daughter;fontSource=https%3A%2F%2Ffonts.googleapis.com%2Fcss%3Ffamily%3DArchitects%2BDaughter;labelBackgroundColor=none;strokeColor=#909090;fontColor=#1A1A1A;rounded=1;" vertex="1" parent="6DQtFIIYm9AHDPmmrgxx-36">
          <mxGeometry x="48" width="130" height="22" as="geometry">
            <mxRectangle width="130" height="22" as="alternateBounds" />
          </mxGeometry>
        </mxCell>
        <mxCell id="6DQtFIIYm9AHDPmmrgxx-39" style="shape=tableRow;horizontal=0;startSize=0;swimlaneHead=0;swimlaneBody=0;fillColor=none;collapsible=0;dropTarget=0;points=[[0,0.5],[1,0.5]];portConstraint=eastwest;top=0;left=0;right=0;bottom=0;sketch=1;hachureGap=4;jiggle=2;curveFitting=1;fontFamily=Architects Daughter;fontSource=https%3A%2F%2Ffonts.googleapis.com%2Fcss%3Ffamily%3DArchitects%2BDaughter;labelBackgroundColor=none;strokeColor=#909090;fontColor=#1A1A1A;rounded=1;fontSize=15;" vertex="1" parent="6DQtFIIYm9AHDPmmrgxx-17">
          <mxGeometry y="179" width="178" height="22" as="geometry" />
        </mxCell>
        <mxCell id="6DQtFIIYm9AHDPmmrgxx-40" value="string" style="shape=partialRectangle;connectable=0;fillColor=none;top=0;left=0;bottom=0;right=0;align=left;spacingLeft=2;overflow=hidden;fontSize=15;sketch=1;hachureGap=4;jiggle=2;curveFitting=1;fontFamily=Architects Daughter;fontSource=https%3A%2F%2Ffonts.googleapis.com%2Fcss%3Ffamily%3DArchitects%2BDaughter;labelBackgroundColor=none;strokeColor=#909090;fontColor=#1A1A1A;rounded=1;" vertex="1" parent="6DQtFIIYm9AHDPmmrgxx-39">
          <mxGeometry width="48" height="22" as="geometry">
            <mxRectangle width="48" height="22" as="alternateBounds" />
          </mxGeometry>
        </mxCell>
        <mxCell id="6DQtFIIYm9AHDPmmrgxx-41" value="title" style="shape=partialRectangle;connectable=0;fillColor=none;top=0;left=0;bottom=0;right=0;align=left;spacingLeft=2;overflow=hidden;fontSize=15;sketch=1;hachureGap=4;jiggle=2;curveFitting=1;fontFamily=Architects Daughter;fontSource=https%3A%2F%2Ffonts.googleapis.com%2Fcss%3Ffamily%3DArchitects%2BDaughter;labelBackgroundColor=none;strokeColor=#909090;fontColor=#1A1A1A;rounded=1;" vertex="1" parent="6DQtFIIYm9AHDPmmrgxx-39">
          <mxGeometry x="48" width="130" height="22" as="geometry">
            <mxRectangle width="130" height="22" as="alternateBounds" />
          </mxGeometry>
        </mxCell>
        <mxCell id="6DQtFIIYm9AHDPmmrgxx-42" style="shape=tableRow;horizontal=0;startSize=0;swimlaneHead=0;swimlaneBody=0;fillColor=none;collapsible=0;dropTarget=0;points=[[0,0.5],[1,0.5]];portConstraint=eastwest;top=0;left=0;right=0;bottom=0;sketch=1;hachureGap=4;jiggle=2;curveFitting=1;fontFamily=Architects Daughter;fontSource=https%3A%2F%2Ffonts.googleapis.com%2Fcss%3Ffamily%3DArchitects%2BDaughter;labelBackgroundColor=none;strokeColor=#909090;fontColor=#1A1A1A;rounded=1;fontSize=15;" vertex="1" parent="6DQtFIIYm9AHDPmmrgxx-17">
          <mxGeometry y="201" width="178" height="22" as="geometry" />
        </mxCell>
        <mxCell id="6DQtFIIYm9AHDPmmrgxx-43" value="string" style="shape=partialRectangle;connectable=0;fillColor=none;top=0;left=0;bottom=0;right=0;align=left;spacingLeft=2;overflow=hidden;fontSize=15;sketch=1;hachureGap=4;jiggle=2;curveFitting=1;fontFamily=Architects Daughter;fontSource=https%3A%2F%2Ffonts.googleapis.com%2Fcss%3Ffamily%3DArchitects%2BDaughter;labelBackgroundColor=none;strokeColor=#909090;fontColor=#1A1A1A;rounded=1;" vertex="1" parent="6DQtFIIYm9AHDPmmrgxx-42">
          <mxGeometry width="48" height="22" as="geometry">
            <mxRectangle width="48" height="22" as="alternateBounds" />
          </mxGeometry>
        </mxCell>
        <mxCell id="6DQtFIIYm9AHDPmmrgxx-44" value="summary" style="shape=partialRectangle;connectable=0;fillColor=none;top=0;left=0;bottom=0;right=0;align=left;spacingLeft=2;overflow=hidden;fontSize=15;sketch=1;hachureGap=4;jiggle=2;curveFitting=1;fontFamily=Architects Daughter;fontSource=https%3A%2F%2Ffonts.googleapis.com%2Fcss%3Ffamily%3DArchitects%2BDaughter;labelBackgroundColor=none;strokeColor=#909090;fontColor=#1A1A1A;rounded=1;" vertex="1" parent="6DQtFIIYm9AHDPmmrgxx-42">
          <mxGeometry x="48" width="130" height="22" as="geometry">
            <mxRectangle width="130" height="22" as="alternateBounds" />
          </mxGeometry>
        </mxCell>
        <mxCell id="6DQtFIIYm9AHDPmmrgxx-45" value="EDITOR" style="shape=table;startSize=25;container=1;collapsible=0;childLayout=tableLayout;fixedRows=1;rowLines=1;fontStyle=1;align=center;resizeLast=1;sketch=1;hachureGap=4;jiggle=2;curveFitting=1;fontFamily=Architects Daughter;fontSource=https%3A%2F%2Ffonts.googleapis.com%2Fcss%3Ffamily%3DArchitects%2BDaughter;labelBackgroundColor=none;fillColor=#F5AB50;strokeColor=#909090;fontColor=#1A1A1A;rounded=1;fontSize=15;" vertex="1" parent="1">
          <mxGeometry x="267" y="452" width="123" height="69" as="geometry" />
        </mxCell>
        <mxCell id="6DQtFIIYm9AHDPmmrgxx-46" style="shape=tableRow;horizontal=0;startSize=0;swimlaneHead=0;swimlaneBody=0;fillColor=none;collapsible=0;dropTarget=0;points=[[0,0.5],[1,0.5]];portConstraint=eastwest;top=0;left=0;right=0;bottom=0;sketch=1;hachureGap=4;jiggle=2;curveFitting=1;fontFamily=Architects Daughter;fontSource=https%3A%2F%2Ffonts.googleapis.com%2Fcss%3Ffamily%3DArchitects%2BDaughter;labelBackgroundColor=none;strokeColor=#909090;fontColor=#1A1A1A;rounded=1;fontSize=15;" vertex="1" parent="6DQtFIIYm9AHDPmmrgxx-45">
          <mxGeometry y="25" width="123" height="22" as="geometry" />
        </mxCell>
        <mxCell id="6DQtFIIYm9AHDPmmrgxx-47" value="bigint" style="shape=partialRectangle;connectable=0;fillColor=none;top=0;left=0;bottom=0;right=0;align=left;spacingLeft=2;overflow=hidden;fontSize=15;sketch=1;hachureGap=4;jiggle=2;curveFitting=1;fontFamily=Architects Daughter;fontSource=https%3A%2F%2Ffonts.googleapis.com%2Fcss%3Ffamily%3DArchitects%2BDaughter;labelBackgroundColor=none;strokeColor=#909090;fontColor=#1A1A1A;rounded=1;" vertex="1" parent="6DQtFIIYm9AHDPmmrgxx-46">
          <mxGeometry width="53" height="22" as="geometry">
            <mxRectangle width="53" height="22" as="alternateBounds" />
          </mxGeometry>
        </mxCell>
        <mxCell id="6DQtFIIYm9AHDPmmrgxx-48" value="id" style="shape=partialRectangle;connectable=0;fillColor=none;top=0;left=0;bottom=0;right=0;align=left;spacingLeft=2;overflow=hidden;fontSize=15;sketch=1;hachureGap=4;jiggle=2;curveFitting=1;fontFamily=Architects Daughter;fontSource=https%3A%2F%2Ffonts.googleapis.com%2Fcss%3Ffamily%3DArchitects%2BDaughter;labelBackgroundColor=none;strokeColor=#909090;fontColor=#1A1A1A;rounded=1;" vertex="1" parent="6DQtFIIYm9AHDPmmrgxx-46">
          <mxGeometry x="53" width="70" height="22" as="geometry">
            <mxRectangle width="70" height="22" as="alternateBounds" />
          </mxGeometry>
        </mxCell>
        <mxCell id="6DQtFIIYm9AHDPmmrgxx-49" style="shape=tableRow;horizontal=0;startSize=0;swimlaneHead=0;swimlaneBody=0;fillColor=none;collapsible=0;dropTarget=0;points=[[0,0.5],[1,0.5]];portConstraint=eastwest;top=0;left=0;right=0;bottom=0;sketch=1;hachureGap=4;jiggle=2;curveFitting=1;fontFamily=Architects Daughter;fontSource=https%3A%2F%2Ffonts.googleapis.com%2Fcss%3Ffamily%3DArchitects%2BDaughter;labelBackgroundColor=none;strokeColor=#909090;fontColor=#1A1A1A;rounded=1;fontSize=15;" vertex="1" parent="6DQtFIIYm9AHDPmmrgxx-45">
          <mxGeometry y="47" width="123" height="22" as="geometry" />
        </mxCell>
        <mxCell id="6DQtFIIYm9AHDPmmrgxx-50" value="string" style="shape=partialRectangle;connectable=0;fillColor=none;top=0;left=0;bottom=0;right=0;align=left;spacingLeft=2;overflow=hidden;fontSize=15;sketch=1;hachureGap=4;jiggle=2;curveFitting=1;fontFamily=Architects Daughter;fontSource=https%3A%2F%2Ffonts.googleapis.com%2Fcss%3Ffamily%3DArchitects%2BDaughter;labelBackgroundColor=none;strokeColor=#909090;fontColor=#1A1A1A;rounded=1;" vertex="1" parent="6DQtFIIYm9AHDPmmrgxx-49">
          <mxGeometry width="53" height="22" as="geometry">
            <mxRectangle width="53" height="22" as="alternateBounds" />
          </mxGeometry>
        </mxCell>
        <mxCell id="6DQtFIIYm9AHDPmmrgxx-51" value="name" style="shape=partialRectangle;connectable=0;fillColor=none;top=0;left=0;bottom=0;right=0;align=left;spacingLeft=2;overflow=hidden;fontSize=15;sketch=1;hachureGap=4;jiggle=2;curveFitting=1;fontFamily=Architects Daughter;fontSource=https%3A%2F%2Ffonts.googleapis.com%2Fcss%3Ffamily%3DArchitects%2BDaughter;labelBackgroundColor=none;strokeColor=#909090;fontColor=#1A1A1A;rounded=1;" vertex="1" parent="6DQtFIIYm9AHDPmmrgxx-49">
          <mxGeometry x="53" width="70" height="22" as="geometry">
            <mxRectangle width="70" height="22" as="alternateBounds" />
          </mxGeometry>
        </mxCell>
        <mxCell id="6DQtFIIYm9AHDPmmrgxx-52" value="BOOK_AUTHORS" style="shape=table;startSize=25;container=1;collapsible=0;childLayout=tableLayout;fixedRows=1;rowLines=1;fontStyle=1;align=center;resizeLast=1;sketch=1;hachureGap=4;jiggle=2;curveFitting=1;fontFamily=Architects Daughter;fontSource=https%3A%2F%2Ffonts.googleapis.com%2Fcss%3Ffamily%3DArchitects%2BDaughter;labelBackgroundColor=none;fillColor=#F5AB50;strokeColor=#909090;fontColor=#1A1A1A;rounded=1;fontSize=15;" vertex="1" parent="1">
          <mxGeometry x="50" y="452" width="140" height="69" as="geometry" />
        </mxCell>
        <mxCell id="6DQtFIIYm9AHDPmmrgxx-53" style="shape=tableRow;horizontal=0;startSize=0;swimlaneHead=0;swimlaneBody=0;fillColor=none;collapsible=0;dropTarget=0;points=[[0,0.5],[1,0.5]];portConstraint=eastwest;top=0;left=0;right=0;bottom=0;sketch=1;hachureGap=4;jiggle=2;curveFitting=1;fontFamily=Architects Daughter;fontSource=https%3A%2F%2Ffonts.googleapis.com%2Fcss%3Ffamily%3DArchitects%2BDaughter;labelBackgroundColor=none;strokeColor=#909090;fontColor=#1A1A1A;rounded=1;fontSize=15;" vertex="1" parent="6DQtFIIYm9AHDPmmrgxx-52">
          <mxGeometry y="25" width="140" height="22" as="geometry" />
        </mxCell>
        <mxCell id="6DQtFIIYm9AHDPmmrgxx-54" value="bigint" style="shape=partialRectangle;connectable=0;fillColor=none;top=0;left=0;bottom=0;right=0;align=left;spacingLeft=2;overflow=hidden;fontSize=15;sketch=1;hachureGap=4;jiggle=2;curveFitting=1;fontFamily=Architects Daughter;fontSource=https%3A%2F%2Ffonts.googleapis.com%2Fcss%3Ffamily%3DArchitects%2BDaughter;labelBackgroundColor=none;strokeColor=#909090;fontColor=#1A1A1A;rounded=1;" vertex="1" parent="6DQtFIIYm9AHDPmmrgxx-53">
          <mxGeometry width="50" height="22" as="geometry">
            <mxRectangle width="50" height="22" as="alternateBounds" />
          </mxGeometry>
        </mxCell>
        <mxCell id="6DQtFIIYm9AHDPmmrgxx-55" value="book_id" style="shape=partialRectangle;connectable=0;fillColor=none;top=0;left=0;bottom=0;right=0;align=left;spacingLeft=2;overflow=hidden;fontSize=15;sketch=1;hachureGap=4;jiggle=2;curveFitting=1;fontFamily=Architects Daughter;fontSource=https%3A%2F%2Ffonts.googleapis.com%2Fcss%3Ffamily%3DArchitects%2BDaughter;labelBackgroundColor=none;strokeColor=#909090;fontColor=#1A1A1A;rounded=1;" vertex="1" parent="6DQtFIIYm9AHDPmmrgxx-53">
          <mxGeometry x="50" width="90" height="22" as="geometry">
            <mxRectangle width="90" height="22" as="alternateBounds" />
          </mxGeometry>
        </mxCell>
        <mxCell id="6DQtFIIYm9AHDPmmrgxx-56" style="shape=tableRow;horizontal=0;startSize=0;swimlaneHead=0;swimlaneBody=0;fillColor=none;collapsible=0;dropTarget=0;points=[[0,0.5],[1,0.5]];portConstraint=eastwest;top=0;left=0;right=0;bottom=0;sketch=1;hachureGap=4;jiggle=2;curveFitting=1;fontFamily=Architects Daughter;fontSource=https%3A%2F%2Ffonts.googleapis.com%2Fcss%3Ffamily%3DArchitects%2BDaughter;labelBackgroundColor=none;strokeColor=#909090;fontColor=#1A1A1A;rounded=1;fontSize=15;" vertex="1" parent="6DQtFIIYm9AHDPmmrgxx-52">
          <mxGeometry y="47" width="140" height="22" as="geometry" />
        </mxCell>
        <mxCell id="6DQtFIIYm9AHDPmmrgxx-57" value="bigint" style="shape=partialRectangle;connectable=0;fillColor=none;top=0;left=0;bottom=0;right=0;align=left;spacingLeft=2;overflow=hidden;fontSize=15;sketch=1;hachureGap=4;jiggle=2;curveFitting=1;fontFamily=Architects Daughter;fontSource=https%3A%2F%2Ffonts.googleapis.com%2Fcss%3Ffamily%3DArchitects%2BDaughter;labelBackgroundColor=none;strokeColor=#909090;fontColor=#1A1A1A;rounded=1;" vertex="1" parent="6DQtFIIYm9AHDPmmrgxx-56">
          <mxGeometry width="50" height="22" as="geometry">
            <mxRectangle width="50" height="22" as="alternateBounds" />
          </mxGeometry>
        </mxCell>
        <mxCell id="6DQtFIIYm9AHDPmmrgxx-58" value="author_id" style="shape=partialRectangle;connectable=0;fillColor=none;top=0;left=0;bottom=0;right=0;align=left;spacingLeft=2;overflow=hidden;fontSize=15;sketch=1;hachureGap=4;jiggle=2;curveFitting=1;fontFamily=Architects Daughter;fontSource=https%3A%2F%2Ffonts.googleapis.com%2Fcss%3Ffamily%3DArchitects%2BDaughter;labelBackgroundColor=none;strokeColor=#909090;fontColor=#1A1A1A;rounded=1;" vertex="1" parent="6DQtFIIYm9AHDPmmrgxx-56">
          <mxGeometry x="50" width="90" height="22" as="geometry">
            <mxRectangle width="90" height="22" as="alternateBounds" />
          </mxGeometry>
        </mxCell>
        <mxCell id="6DQtFIIYm9AHDPmmrgxx-59" value="BOOK_FORMATS" style="shape=table;startSize=25;container=1;collapsible=0;childLayout=tableLayout;fixedRows=1;rowLines=1;fontStyle=1;align=center;resizeLast=1;sketch=1;hachureGap=4;jiggle=2;curveFitting=1;fontFamily=Architects Daughter;fontSource=https%3A%2F%2Ffonts.googleapis.com%2Fcss%3Ffamily%3DArchitects%2BDaughter;labelBackgroundColor=none;fillColor=#F5AB50;strokeColor=#909090;fontColor=#1A1A1A;rounded=1;fontSize=15;" vertex="1" parent="1">
          <mxGeometry x="467" y="452" width="143" height="69" as="geometry" />
        </mxCell>
        <mxCell id="6DQtFIIYm9AHDPmmrgxx-60" style="shape=tableRow;horizontal=0;startSize=0;swimlaneHead=0;swimlaneBody=0;fillColor=none;collapsible=0;dropTarget=0;points=[[0,0.5],[1,0.5]];portConstraint=eastwest;top=0;left=0;right=0;bottom=0;sketch=1;hachureGap=4;jiggle=2;curveFitting=1;fontFamily=Architects Daughter;fontSource=https%3A%2F%2Ffonts.googleapis.com%2Fcss%3Ffamily%3DArchitects%2BDaughter;labelBackgroundColor=none;strokeColor=#909090;fontColor=#1A1A1A;rounded=1;fontSize=15;" vertex="1" parent="6DQtFIIYm9AHDPmmrgxx-59">
          <mxGeometry y="25" width="143" height="22" as="geometry" />
        </mxCell>
        <mxCell id="6DQtFIIYm9AHDPmmrgxx-61" value="bigint" style="shape=partialRectangle;connectable=0;fillColor=none;top=0;left=0;bottom=0;right=0;align=left;spacingLeft=2;overflow=hidden;fontSize=15;sketch=1;hachureGap=4;jiggle=2;curveFitting=1;fontFamily=Architects Daughter;fontSource=https%3A%2F%2Ffonts.googleapis.com%2Fcss%3Ffamily%3DArchitects%2BDaughter;labelBackgroundColor=none;strokeColor=#909090;fontColor=#1A1A1A;rounded=1;" vertex="1" parent="6DQtFIIYm9AHDPmmrgxx-60">
          <mxGeometry width="53" height="22" as="geometry">
            <mxRectangle width="53" height="22" as="alternateBounds" />
          </mxGeometry>
        </mxCell>
        <mxCell id="6DQtFIIYm9AHDPmmrgxx-62" value="book_id" style="shape=partialRectangle;connectable=0;fillColor=none;top=0;left=0;bottom=0;right=0;align=left;spacingLeft=2;overflow=hidden;fontSize=15;sketch=1;hachureGap=4;jiggle=2;curveFitting=1;fontFamily=Architects Daughter;fontSource=https%3A%2F%2Ffonts.googleapis.com%2Fcss%3Ffamily%3DArchitects%2BDaughter;labelBackgroundColor=none;strokeColor=#909090;fontColor=#1A1A1A;rounded=1;" vertex="1" parent="6DQtFIIYm9AHDPmmrgxx-60">
          <mxGeometry x="53" width="90" height="22" as="geometry">
            <mxRectangle width="90" height="22" as="alternateBounds" />
          </mxGeometry>
        </mxCell>
        <mxCell id="6DQtFIIYm9AHDPmmrgxx-63" style="shape=tableRow;horizontal=0;startSize=0;swimlaneHead=0;swimlaneBody=0;fillColor=none;collapsible=0;dropTarget=0;points=[[0,0.5],[1,0.5]];portConstraint=eastwest;top=0;left=0;right=0;bottom=0;sketch=1;hachureGap=4;jiggle=2;curveFitting=1;fontFamily=Architects Daughter;fontSource=https%3A%2F%2Ffonts.googleapis.com%2Fcss%3Ffamily%3DArchitects%2BDaughter;labelBackgroundColor=none;strokeColor=#909090;fontColor=#1A1A1A;rounded=1;fontSize=15;" vertex="1" parent="6DQtFIIYm9AHDPmmrgxx-59">
          <mxGeometry y="47" width="143" height="22" as="geometry" />
        </mxCell>
        <mxCell id="6DQtFIIYm9AHDPmmrgxx-64" value="string" style="shape=partialRectangle;connectable=0;fillColor=none;top=0;left=0;bottom=0;right=0;align=left;spacingLeft=2;overflow=hidden;fontSize=15;sketch=1;hachureGap=4;jiggle=2;curveFitting=1;fontFamily=Architects Daughter;fontSource=https%3A%2F%2Ffonts.googleapis.com%2Fcss%3Ffamily%3DArchitects%2BDaughter;labelBackgroundColor=none;strokeColor=#909090;fontColor=#1A1A1A;rounded=1;" vertex="1" parent="6DQtFIIYm9AHDPmmrgxx-63">
          <mxGeometry width="53" height="22" as="geometry">
            <mxRectangle width="53" height="22" as="alternateBounds" />
          </mxGeometry>
        </mxCell>
        <mxCell id="6DQtFIIYm9AHDPmmrgxx-65" value="format" style="shape=partialRectangle;connectable=0;fillColor=none;top=0;left=0;bottom=0;right=0;align=left;spacingLeft=2;overflow=hidden;fontSize=15;sketch=1;hachureGap=4;jiggle=2;curveFitting=1;fontFamily=Architects Daughter;fontSource=https%3A%2F%2Ffonts.googleapis.com%2Fcss%3Ffamily%3DArchitects%2BDaughter;labelBackgroundColor=none;strokeColor=#909090;fontColor=#1A1A1A;rounded=1;" vertex="1" parent="6DQtFIIYm9AHDPmmrgxx-63">
          <mxGeometry x="53" width="90" height="22" as="geometry">
            <mxRectangle width="90" height="22" as="alternateBounds" />
          </mxGeometry>
        </mxCell>
        <mxCell id="6DQtFIIYm9AHDPmmrgxx-66" value="BOOK_KEYWORDS" style="shape=table;startSize=25;container=1;collapsible=0;childLayout=tableLayout;fixedRows=1;rowLines=1;fontStyle=1;align=center;resizeLast=1;sketch=1;hachureGap=4;jiggle=2;curveFitting=1;fontFamily=Architects Daughter;fontSource=https%3A%2F%2Ffonts.googleapis.com%2Fcss%3Ffamily%3DArchitects%2BDaughter;labelBackgroundColor=none;fillColor=#F5AB50;strokeColor=#909090;fontColor=#1A1A1A;rounded=1;fontSize=15;" vertex="1" parent="1">
          <mxGeometry x="650" y="452" width="157" height="69" as="geometry" />
        </mxCell>
        <mxCell id="6DQtFIIYm9AHDPmmrgxx-67" style="shape=tableRow;horizontal=0;startSize=0;swimlaneHead=0;swimlaneBody=0;fillColor=none;collapsible=0;dropTarget=0;points=[[0,0.5],[1,0.5]];portConstraint=eastwest;top=0;left=0;right=0;bottom=0;sketch=1;hachureGap=4;jiggle=2;curveFitting=1;fontFamily=Architects Daughter;fontSource=https%3A%2F%2Ffonts.googleapis.com%2Fcss%3Ffamily%3DArchitects%2BDaughter;labelBackgroundColor=none;strokeColor=#909090;fontColor=#1A1A1A;rounded=1;fontSize=15;" vertex="1" parent="6DQtFIIYm9AHDPmmrgxx-66">
          <mxGeometry y="25" width="157" height="22" as="geometry" />
        </mxCell>
        <mxCell id="6DQtFIIYm9AHDPmmrgxx-68" value="bigint" style="shape=partialRectangle;connectable=0;fillColor=none;top=0;left=0;bottom=0;right=0;align=left;spacingLeft=2;overflow=hidden;fontSize=15;sketch=1;hachureGap=4;jiggle=2;curveFitting=1;fontFamily=Architects Daughter;fontSource=https%3A%2F%2Ffonts.googleapis.com%2Fcss%3Ffamily%3DArchitects%2BDaughter;labelBackgroundColor=none;strokeColor=#909090;fontColor=#1A1A1A;rounded=1;" vertex="1" parent="6DQtFIIYm9AHDPmmrgxx-67">
          <mxGeometry width="50" height="22" as="geometry">
            <mxRectangle width="50" height="22" as="alternateBounds" />
          </mxGeometry>
        </mxCell>
        <mxCell id="6DQtFIIYm9AHDPmmrgxx-69" value="book_id" style="shape=partialRectangle;connectable=0;fillColor=none;top=0;left=0;bottom=0;right=0;align=left;spacingLeft=2;overflow=hidden;fontSize=15;sketch=1;hachureGap=4;jiggle=2;curveFitting=1;fontFamily=Architects Daughter;fontSource=https%3A%2F%2Ffonts.googleapis.com%2Fcss%3Ffamily%3DArchitects%2BDaughter;labelBackgroundColor=none;strokeColor=#909090;fontColor=#1A1A1A;rounded=1;" vertex="1" parent="6DQtFIIYm9AHDPmmrgxx-67">
          <mxGeometry x="50" width="107" height="22" as="geometry">
            <mxRectangle width="107" height="22" as="alternateBounds" />
          </mxGeometry>
        </mxCell>
        <mxCell id="6DQtFIIYm9AHDPmmrgxx-70" style="shape=tableRow;horizontal=0;startSize=0;swimlaneHead=0;swimlaneBody=0;fillColor=none;collapsible=0;dropTarget=0;points=[[0,0.5],[1,0.5]];portConstraint=eastwest;top=0;left=0;right=0;bottom=0;sketch=1;hachureGap=4;jiggle=2;curveFitting=1;fontFamily=Architects Daughter;fontSource=https%3A%2F%2Ffonts.googleapis.com%2Fcss%3Ffamily%3DArchitects%2BDaughter;labelBackgroundColor=none;strokeColor=#909090;fontColor=#1A1A1A;rounded=1;fontSize=15;" vertex="1" parent="6DQtFIIYm9AHDPmmrgxx-66">
          <mxGeometry y="47" width="157" height="22" as="geometry" />
        </mxCell>
        <mxCell id="6DQtFIIYm9AHDPmmrgxx-71" value="string" style="shape=partialRectangle;connectable=0;fillColor=none;top=0;left=0;bottom=0;right=0;align=left;spacingLeft=2;overflow=hidden;fontSize=15;sketch=1;hachureGap=4;jiggle=2;curveFitting=1;fontFamily=Architects Daughter;fontSource=https%3A%2F%2Ffonts.googleapis.com%2Fcss%3Ffamily%3DArchitects%2BDaughter;labelBackgroundColor=none;strokeColor=#909090;fontColor=#1A1A1A;rounded=1;" vertex="1" parent="6DQtFIIYm9AHDPmmrgxx-70">
          <mxGeometry width="50" height="22" as="geometry">
            <mxRectangle width="50" height="22" as="alternateBounds" />
          </mxGeometry>
        </mxCell>
        <mxCell id="6DQtFIIYm9AHDPmmrgxx-72" value="keyword" style="shape=partialRectangle;connectable=0;fillColor=none;top=0;left=0;bottom=0;right=0;align=left;spacingLeft=2;overflow=hidden;fontSize=15;sketch=1;hachureGap=4;jiggle=2;curveFitting=1;fontFamily=Architects Daughter;fontSource=https%3A%2F%2Ffonts.googleapis.com%2Fcss%3Ffamily%3DArchitects%2BDaughter;labelBackgroundColor=none;strokeColor=#909090;fontColor=#1A1A1A;rounded=1;" vertex="1" parent="6DQtFIIYm9AHDPmmrgxx-70">
          <mxGeometry x="50" width="107" height="22" as="geometry">
            <mxRectangle width="107" height="22" as="alternateBounds" />
          </mxGeometry>
        </mxCell>
        <mxCell id="6DQtFIIYm9AHDPmmrgxx-73" value="BOOK_LANGUAGES" style="shape=table;startSize=25;container=1;collapsible=0;childLayout=tableLayout;fixedRows=1;rowLines=1;fontStyle=1;align=center;resizeLast=1;sketch=1;hachureGap=4;jiggle=2;curveFitting=1;fontFamily=Architects Daughter;fontSource=https%3A%2F%2Ffonts.googleapis.com%2Fcss%3Ffamily%3DArchitects%2BDaughter;labelBackgroundColor=none;fillColor=#F5AB50;strokeColor=#909090;fontColor=#1A1A1A;rounded=1;fontSize=15;" vertex="1" parent="1">
          <mxGeometry x="880" y="452" width="156" height="69" as="geometry" />
        </mxCell>
        <mxCell id="6DQtFIIYm9AHDPmmrgxx-74" style="shape=tableRow;horizontal=0;startSize=0;swimlaneHead=0;swimlaneBody=0;fillColor=none;collapsible=0;dropTarget=0;points=[[0,0.5],[1,0.5]];portConstraint=eastwest;top=0;left=0;right=0;bottom=0;sketch=1;hachureGap=4;jiggle=2;curveFitting=1;fontFamily=Architects Daughter;fontSource=https%3A%2F%2Ffonts.googleapis.com%2Fcss%3Ffamily%3DArchitects%2BDaughter;labelBackgroundColor=none;strokeColor=#909090;fontColor=#1A1A1A;rounded=1;fontSize=15;" vertex="1" parent="6DQtFIIYm9AHDPmmrgxx-73">
          <mxGeometry y="25" width="156" height="22" as="geometry" />
        </mxCell>
        <mxCell id="6DQtFIIYm9AHDPmmrgxx-75" value="bigint" style="shape=partialRectangle;connectable=0;fillColor=none;top=0;left=0;bottom=0;right=0;align=left;spacingLeft=2;overflow=hidden;fontSize=15;sketch=1;hachureGap=4;jiggle=2;curveFitting=1;fontFamily=Architects Daughter;fontSource=https%3A%2F%2Ffonts.googleapis.com%2Fcss%3Ffamily%3DArchitects%2BDaughter;labelBackgroundColor=none;strokeColor=#909090;fontColor=#1A1A1A;rounded=1;" vertex="1" parent="6DQtFIIYm9AHDPmmrgxx-74">
          <mxGeometry width="50" height="22" as="geometry">
            <mxRectangle width="50" height="22" as="alternateBounds" />
          </mxGeometry>
        </mxCell>
        <mxCell id="6DQtFIIYm9AHDPmmrgxx-76" value="book_id" style="shape=partialRectangle;connectable=0;fillColor=none;top=0;left=0;bottom=0;right=0;align=left;spacingLeft=2;overflow=hidden;fontSize=15;sketch=1;hachureGap=4;jiggle=2;curveFitting=1;fontFamily=Architects Daughter;fontSource=https%3A%2F%2Ffonts.googleapis.com%2Fcss%3Ffamily%3DArchitects%2BDaughter;labelBackgroundColor=none;strokeColor=#909090;fontColor=#1A1A1A;rounded=1;" vertex="1" parent="6DQtFIIYm9AHDPmmrgxx-74">
          <mxGeometry x="50" width="106" height="22" as="geometry">
            <mxRectangle width="106" height="22" as="alternateBounds" />
          </mxGeometry>
        </mxCell>
        <mxCell id="6DQtFIIYm9AHDPmmrgxx-77" style="shape=tableRow;horizontal=0;startSize=0;swimlaneHead=0;swimlaneBody=0;fillColor=none;collapsible=0;dropTarget=0;points=[[0,0.5],[1,0.5]];portConstraint=eastwest;top=0;left=0;right=0;bottom=0;sketch=1;hachureGap=4;jiggle=2;curveFitting=1;fontFamily=Architects Daughter;fontSource=https%3A%2F%2Ffonts.googleapis.com%2Fcss%3Ffamily%3DArchitects%2BDaughter;labelBackgroundColor=none;strokeColor=#909090;fontColor=#1A1A1A;rounded=1;fontSize=15;" vertex="1" parent="6DQtFIIYm9AHDPmmrgxx-73">
          <mxGeometry y="47" width="156" height="22" as="geometry" />
        </mxCell>
        <mxCell id="6DQtFIIYm9AHDPmmrgxx-78" value="string" style="shape=partialRectangle;connectable=0;fillColor=none;top=0;left=0;bottom=0;right=0;align=left;spacingLeft=2;overflow=hidden;fontSize=15;sketch=1;hachureGap=4;jiggle=2;curveFitting=1;fontFamily=Architects Daughter;fontSource=https%3A%2F%2Ffonts.googleapis.com%2Fcss%3Ffamily%3DArchitects%2BDaughter;labelBackgroundColor=none;strokeColor=#909090;fontColor=#1A1A1A;rounded=1;" vertex="1" parent="6DQtFIIYm9AHDPmmrgxx-77">
          <mxGeometry width="50" height="22" as="geometry">
            <mxRectangle width="50" height="22" as="alternateBounds" />
          </mxGeometry>
        </mxCell>
        <mxCell id="6DQtFIIYm9AHDPmmrgxx-79" value="language" style="shape=partialRectangle;connectable=0;fillColor=none;top=0;left=0;bottom=0;right=0;align=left;spacingLeft=2;overflow=hidden;fontSize=15;sketch=1;hachureGap=4;jiggle=2;curveFitting=1;fontFamily=Architects Daughter;fontSource=https%3A%2F%2Ffonts.googleapis.com%2Fcss%3Ffamily%3DArchitects%2BDaughter;labelBackgroundColor=none;strokeColor=#909090;fontColor=#1A1A1A;rounded=1;" vertex="1" parent="6DQtFIIYm9AHDPmmrgxx-77">
          <mxGeometry x="50" width="106" height="22" as="geometry">
            <mxRectangle width="106" height="22" as="alternateBounds" />
          </mxGeometry>
        </mxCell>
        <mxCell id="6DQtFIIYm9AHDPmmrgxx-80" value="writes" style="curved=1;startArrow=ERmandOne;startSize=10;;endArrow=ERmany;endSize=10;;exitX=0.5;exitY=1;entryX=0.33;entryY=0;rounded=1;sketch=1;hachureGap=4;jiggle=2;curveFitting=1;fontFamily=Architects Daughter;fontSource=https%3A%2F%2Ffonts.googleapis.com%2Fcss%3Ffamily%3DArchitects%2BDaughter;labelBackgroundColor=default;strokeColor=#182E3E;fontColor=default;fontSize=15;textShadow=0;labelBorderColor=none;" edge="1" parent="1" source="6DQtFIIYm9AHDPmmrgxx-1" target="6DQtFIIYm9AHDPmmrgxx-52">
          <mxGeometry relative="1" as="geometry">
            <Array as="points">
              <mxPoint x="58" y="402" />
            </Array>
          </mxGeometry>
        </mxCell>
        <mxCell id="6DQtFIIYm9AHDPmmrgxx-81" value="written by" style="curved=1;startArrow=ERmandOne;startSize=10;;endArrow=ERmany;endSize=10;;exitX=0;exitY=0.65;entryX=0.69;entryY=0;rounded=1;sketch=1;hachureGap=4;jiggle=2;curveFitting=1;fontFamily=Architects Daughter;fontSource=https%3A%2F%2Ffonts.googleapis.com%2Fcss%3Ffamily%3DArchitects%2BDaughter;labelBackgroundColor=default;strokeColor=#182E3E;fontColor=default;fontSize=15;" edge="1" parent="1" source="6DQtFIIYm9AHDPmmrgxx-17" target="6DQtFIIYm9AHDPmmrgxx-52">
          <mxGeometry relative="1" as="geometry">
            <Array as="points">
              <mxPoint x="163" y="402" />
            </Array>
          </mxGeometry>
        </mxCell>
        <mxCell id="6DQtFIIYm9AHDPmmrgxx-82" value="published by" style="curved=1;startArrow=ERmany;startSize=10;;endArrow=ERmandOne;endSize=10;;exitX=0;exitY=0.75;entryX=0.5;entryY=0;rounded=1;sketch=1;hachureGap=4;jiggle=2;curveFitting=1;fontFamily=Architects Daughter;fontSource=https%3A%2F%2Ffonts.googleapis.com%2Fcss%3Ffamily%3DArchitects%2BDaughter;labelBackgroundColor=default;strokeColor=#182E3E;fontColor=default;fontSize=15;" edge="1" parent="1" source="6DQtFIIYm9AHDPmmrgxx-17" target="6DQtFIIYm9AHDPmmrgxx-45">
          <mxGeometry relative="1" as="geometry">
            <Array as="points">
              <mxPoint x="317" y="402" />
            </Array>
          </mxGeometry>
        </mxCell>
        <mxCell id="6DQtFIIYm9AHDPmmrgxx-83" value="has format" style="curved=1;startArrow=ERmandOne;startSize=10;;endArrow=ERmany;endSize=10;;exitX=0.5;exitY=1;entryX=0.5;entryY=0;rounded=1;sketch=1;hachureGap=4;jiggle=2;curveFitting=1;fontFamily=Architects Daughter;fontSource=https%3A%2F%2Ffonts.googleapis.com%2Fcss%3Ffamily%3DArchitects%2BDaughter;labelBackgroundColor=default;strokeColor=#182E3E;fontColor=default;fontSize=15;" edge="1" parent="1" source="6DQtFIIYm9AHDPmmrgxx-17" target="6DQtFIIYm9AHDPmmrgxx-59">
          <mxGeometry relative="1" as="geometry">
            <Array as="points" />
          </mxGeometry>
        </mxCell>
        <mxCell id="6DQtFIIYm9AHDPmmrgxx-84" value="has keywords" style="curved=1;startArrow=ERmandOne;startSize=10;;endArrow=ERmany;endSize=10;;exitX=1;exitY=0.74;entryX=0.5;entryY=0;rounded=1;sketch=1;hachureGap=4;jiggle=2;curveFitting=1;fontFamily=Architects Daughter;fontSource=https%3A%2F%2Ffonts.googleapis.com%2Fcss%3Ffamily%3DArchitects%2BDaughter;labelBackgroundColor=default;strokeColor=#182E3E;fontColor=default;fontSize=15;" edge="1" parent="1" source="6DQtFIIYm9AHDPmmrgxx-17" target="6DQtFIIYm9AHDPmmrgxx-66">
          <mxGeometry x="-0.0033" relative="1" as="geometry">
            <Array as="points">
              <mxPoint x="744" y="402" />
            </Array>
            <mxPoint as="offset" />
          </mxGeometry>
        </mxCell>
        <mxCell id="6DQtFIIYm9AHDPmmrgxx-85" value="has languages" style="curved=1;startArrow=ERmandOne;startSize=10;;endArrow=ERmany;endSize=10;;exitX=1;exitY=0.62;entryX=0.5;entryY=0;rounded=1;sketch=1;hachureGap=4;jiggle=2;curveFitting=1;fontFamily=Architects Daughter;fontSource=https%3A%2F%2Ffonts.googleapis.com%2Fcss%3Ffamily%3DArchitects%2BDaughter;labelBackgroundColor=default;strokeColor=#182E3E;fontColor=default;fontSize=15;" edge="1" parent="1" source="6DQtFIIYm9AHDPmmrgxx-17" target="6DQtFIIYm9AHDPmmrgxx-73">
          <mxGeometry relative="1" as="geometry">
            <Array as="points">
              <mxPoint x="971" y="402" />
            </Array>
          </mxGeometry>
        </mxCell>
      </root>
    </mxGraphModel>
  </diagram>
</mxfile>
